<?xml version="1.0" encoding="UTF-8"?>
<svg width="1200pt" height="1200pt" version="1.1" viewBox="0 0 1200 1200" xmlns="http://www.w3.org/2000/svg">
 <path d="m1165.7 436.2c0-4.0781 0.83984-8.1602 1.5586-12 1.0938-5.0703 1.8945-10.199 2.4023-15.359 1.1211-8.8047-1.1992-17.703-6.4805-24.84-3.2148-3.8125-7.3438-6.7422-12-8.5195-3.2266-1.1875-6.6445-1.7578-10.082-1.6797h-6.4805 0.003906c-5.1406 1.0391-10.137 2.6914-14.883 4.918l-9.7188 3.4805c-14.398 4.9219-28.922 9.3594-43.32 13.68-5.6289 1.8047-11.414 3.0898-17.281 3.8398h-3.6016 0.003906c-6.7578-1.0117-13.637 0.76172-19.062 4.918s-8.9297 10.336-9.7109 17.121c-0.78125 6.7891 1.2266 13.605 5.5664 18.883 4.3398 5.2812 10.637 8.5703 17.445 9.1211 8.4961 1 17.098 0.55469 25.441-1.3203 4.9219-1.0781 9.8398-2.6406 14.762-4.1992l-12 7.8008-45.48 30c-28.801 18.84-57.238 38.16-85.68 57.602l-86.16 59.16c-27.602 18.84-55.078 38.039-82.922 56.398-32.398 21.359-65.039 42.121-97.801 62.762-16.199 9-32.52 18-49.441 25.68l-17.398 7.9219c-3.4805 1.6797-6.9609 3.3594-10.559 4.6797-13.078 5.0391-26.039 10.078-39.359 14.281v-0.007813c-15.266 4.2656-30.969 6.7617-46.801 7.4414-5.543 0.12109-11.082-0.23828-16.562-1.082-2.2891-0.79297-4.5312-1.7148-6.7188-2.7578h-0.71875c-0.4375-0.49219-0.83984-1.0117-1.1992-1.5625-0.71484-1.3242-1.3555-2.6875-1.9219-4.0781-0.68359-3.2422-1.125-6.5312-1.3203-9.8398v-16.199c0-5.3984 2.1602-12.719 3.4805-19.078v-0.003906c3.9844-14.641 8.957-28.992 14.879-42.961 3.1211-7.6797 6.3594-15.359 9.2383-23.039 1.5586-3.9609 3.1211-7.8008 4.4414-12 2.6484-6.9023 4.5781-14.062 5.7617-21.359 1.5977-13.117 0.32812-26.422-3.7188-39-2.7148-10.664-9.7031-19.738-19.32-25.078-4.707-1.9453-9.6211-3.3516-14.641-4.2031-6.9297-1.2148-13.973-1.6562-21-1.3203-11.203 0.8125-22.273 2.9062-33 6.2422-8.5195 2.1602-16.922 4.8008-25.199 7.6797-8.2812 2.8789-17.16 5.7617-25.559 9.1211s-17.281 6.8398-25.801 10.559c-16.559 6.9609-32.762 14.398-48.961 22.078s-29.641 14.398-44.281 21.84c-16.559 8.3984-32.281 18.961-48 28.922-27.961 17.641-54.48 37.801-80.879 57.84-17.641 13.32-34.801 27-52.199 40.801 6-18.238 12-36 19.199-54.238v-0.003907c1.3594-3.0703 1.3633-6.5742 0.019531-9.6523-1.3477-3.082-3.9219-5.4531-7.1016-6.5469-1.4102-0.55859-2.918-0.84375-4.4375-0.83984-5.2539-0.089844-10.02 3.0547-12 7.9219-6.8398 17.52-13.199 35.16-19.32 52.922-5.0391 15.477-10.199 30.957-15.961 46.195-0.97266 1.7617-1.7734 3.6094-2.3984 5.5234-1.2617 3.0391-1.6719 6.3672-1.1875 9.6211 0.48828 3.2578 1.8516 6.3164 3.9453 8.8555 1.6016 1.875 3.6133 3.3555 5.8789 4.3203 1.8438 0.64844 3.7305 1.168 5.6406 1.5625 2.6406 0 5.2812 0.71875 7.9219 0.96094v-0.003906c5.5508 0.42188 11.129 0.42188 16.68 0 10.922 0 21.84-1.3203 32.641-1.6797h10.559c4.3164 0.23047 8.5703-1.0859 12-3.7188 3.3633-2.7578 5.5156-6.7188 6-11.039 0.47656-4.418-0.80859-8.8438-3.5703-12.324-2.7617-3.4805-6.7812-5.7344-11.188-6.2773-6.0977-0.48047-12.23-0.16016-18.242 0.96094h-2.5195c6.2383-5.0391 12.602-9.9609 18.719-15 6.1211-5.0391 13.32-11.281 19.922-16.801s13.32-10.801 20.039-16.199c26.688-21.449 54.484-41.477 83.281-60l9.7188-6.2383c6.2383-3.8398 12-7.5586 18.84-11.039 6.8398-3.4805 14.879-7.6797 22.32-12l22.801-11.281c7.5586-3.7188 15.121-7.4414 22.801-10.922 15.602-6.9609 31.199-14.281 47.16-20.762 8.6406-3.4805 17.398-6.9609 26.281-10.199l23.281-8.0391h-0.003906c10.785-3.1328 21.902-4.9844 33.121-5.5195 5.4688-0.039062 10.93 0.40234 16.32 1.3203l0.96094 1.1992h-0.003906c1.6875 3.293 3.1289 6.6992 4.3203 10.199 1.1992 5.0039 1.9219 10.105 2.1602 15.242 0.023438 3.0586-0.25781 6.1133-0.83984 9.1172-4.4297 14.355-9.6406 28.453-15.598 42.242-5.7148 13.793-10.523 27.941-14.402 42.359 0.054687-0.59766 0.054687-1.1992 0-1.8008v2.1602 1.3203-1.0781c-1.832 7.918-3.2305 15.93-4.1992 24-0.83984 8.6992-0.83984 17.461 0 26.16 0.33984 3.6055 0.98047 7.1797 1.9219 10.68 1.3906 5.3008 3.6602 10.328 6.7188 14.879 3.5195 4.7734 8.2969 8.4727 13.801 10.68 10.172 4.1719 21.219 5.7812 32.16 4.6797 12.926-0.23438 25.793-1.8008 38.398-4.6797 15.465-3.7812 30.656-8.5898 45.48-14.398 7.5586-3 15-6 22.441-9.3594 15.359-6.8398 30.84-13.559 45.602-21.602 8.1602-4.4414 16.441-8.5195 24-13.441l27.715-17.879c15.121-9.3594 30-18.961 45-28.559 27-17.16 53.641-34.922 80.281-52.922 57.719-39.121 115.2-78.719 173.4-117.24 32-20.961 64-41.762 96-62.398l4.0781-1.9219h0.003906c2.2891-1.1172 4.4961-2.4023 6.6016-3.8398l2.6406-1.8008v2.0391h-0.003907c-1.418 17.727-0.85547 35.559 1.6836 53.16 1.1523 6.7812 5.5039 12.594 11.684 15.609 6.1836 3.0195 13.441 2.875 19.496-0.38672 6.0586-3.2617 10.176-9.2383 11.059-16.062 1.8008-16.078 0.83984-32.52 1.1992-48.719 0.035156-6.9414 0.47266-13.871 1.3203-20.762zm-685.68 335.52c0.34766 0.28906 0.67188 0.61328 0.96094 0.96094z"/>
</svg>
