<?xml version="1.0" encoding="UTF-8"?>
<svg width="1200pt" height="1200pt" version="1.1" viewBox="0 0 1200 1200" xmlns="http://www.w3.org/2000/svg">
 <path d="m598.4 453.19c-59.25 0-116.11 23.578-157.97 65.438-41.906 41.906-65.438 98.719-65.438 157.97s23.531 116.06 65.438 157.97 98.719 65.438 157.97 65.438 116.06-23.531 157.97-65.438c41.859-41.906 65.438-98.719 65.438-157.97-0.09375-59.203-23.625-116.02-65.531-157.87-41.859-41.906-98.672-65.438-157.87-65.531zm0 371.81c-60.047 0-114.14-36.141-137.11-91.594-22.969-55.5-10.266-119.3 32.156-161.76 42.469-42.422 106.31-55.125 161.72-32.156 55.453 22.969 91.641 77.109 91.641 137.11-0.09375 81.938-66.516 148.31-148.4 148.4z" fill="#fff"/>
 <path d="m1012.5 262.5h-156.42l-35.578-88.922c-5.6719-14.25-19.453-23.578-34.781-23.578h-371.44c-15.328 0-29.109 9.3281-34.781 23.578l-35.578 88.922h-156.42c-62.109 0.046875-112.45 50.391-112.5 112.5v562.5c0.046875 62.109 50.391 112.45 112.5 112.5h825c62.109-0.046875 112.45-50.391 112.5-112.5v-562.5c-0.046875-62.109-50.391-112.45-112.5-112.5zm37.5 675c-0.046875 20.719-16.781 37.453-37.5 37.5h-825c-20.719-0.046875-37.453-16.781-37.5-37.5v-562.5c0.046875-20.719 16.781-37.453 37.5-37.5h181.78l0.375-0.09375c14.859-0.79688 28.031-9.7031 34.266-23.203l0.1875-0.28125 35.578-88.922h320.68l35.578 88.922 0.1875 0.32812h-0.046875c6.0938 13.781 19.594 22.875 34.641 23.25h181.78c20.719 0.046875 37.453 16.781 37.5 37.5z" fill="#fff"/>
 <path d="m937.5 412.5h-112.5c-20.719 0-37.5 16.781-37.5 37.5s16.781 37.5 37.5 37.5h112.5c20.719 0 37.5-16.781 37.5-37.5s-16.781-37.5-37.5-37.5z" fill="#fff"/>
</svg>
