<?xml version="1.0" encoding="UTF-8"?>
<svg width="1200pt" height="1200pt" version="1.1" viewBox="0 0 1200 1200" xmlns="http://www.w3.org/2000/svg">
 <path d="m248.48 248.48c14.625-14.625 38.391-14.625 53.016 0l298.5 298.5 298.5-298.5c14.625-14.625 38.391-14.625 53.016 0s14.625 38.391 0 53.016l-298.5 298.5 298.5 298.5c14.625 14.625 14.625 38.391 0 53.016s-38.391 14.625-53.016 0l-298.5-298.5-298.5 298.5c-14.625 14.625-38.391 14.625-53.016 0s-14.625-38.391 0-53.016l298.5-298.5-298.5-298.5c-14.625-14.625-14.625-38.391 0-53.016z" fill="#004220" fill-rule="evenodd"/>
</svg>
