<svg width="1295" height="701" viewBox="0 0 1295 701" fill="none" xmlns="http://www.w3.org/2000/svg">
<g clip-path="url(#clip0_3_17)">
<path d="M647.667 701C634.411 700.99 621.703 695.714 612.333 686.333L15.6667 86.3333C5.73961 77.0833 7.72991e-06 64.1973 -0.239992 50.6359C-0.479579 37.0679 4.8016 23.9906 14.396 14.3959C23.9904 4.80127 37.068 -0.478716 50.636 -0.240049C64.1987 -0.000462578 77.084 5.73914 86.3333 15.6666L651 579.667L1219 11.6666C1232.09 3.78114 1248.06 2.31766 1262.36 7.68219C1276.67 13.0519 1287.73 24.6662 1292.41 39.2129C1297.07 53.7595 1294.84 69.6395 1286.33 82.3329L682.999 685.666C673.744 695.291 661.021 700.812 647.667 701Z" fill="black"/>
</g>
<defs>
<clipPath id="clip0_3_17">
<rect width="1295" height="701" fill="white"/>
</clipPath>
</defs>
</svg>
