<?xml version="1.0" encoding="UTF-8"?>
<svg width="1200pt" height="1200pt" version="1.1" viewBox="0 0 1200 1200" xmlns="http://www.w3.org/2000/svg">
 <path d="m597.5 864c-9.9414-0.007812-19.473-3.9648-26.5-11l-447.5-450c-7.4453-6.9375-11.75-16.602-11.93-26.773-0.17969-10.176 3.7812-19.984 10.977-27.18s17.004-11.156 27.18-10.977c10.172 0.17969 19.836 4.4844 26.773 11.93l423.5 423 426-426c9.8164-5.9141 21.797-7.0117 32.523-2.9883 10.727 4.0273 19.027 12.738 22.531 23.648 3.5 10.91 1.8242 22.82-4.5547 32.34l-452.5 452.5c-6.9414 7.2188-16.484 11.359-26.5 11.5z"/>
</svg>
