<svg width="1260" height="1682" viewBox="0 0 1260 1682" fill="none" xmlns="http://www.w3.org/2000/svg">
<g clip-path="url(#clip0_2_2)">
<path d="M367.487 1256.94C418.762 1276.34 472.589 1288.15 527.277 1291.99L474.013 1197.72C472.989 1196.2 472.163 1194.55 471.56 1192.82L443.527 1110.12L373.444 1040.04L360.478 1068.42L385.708 1149.37C387.28 1154.51 387.28 1159.99 385.708 1165.14L367.487 1256.94Z" fill="#C77213"/>
<path d="M570.378 286.991C574.791 289.417 578.525 292.91 581.241 297.153L639.41 388.612L711.946 385.458L717.903 289.795L644.666 212.703C638.643 206.434 635.583 197.893 636.256 189.225V175.909C584.317 168.375 531.559 168.375 479.62 175.909V235.48L570.378 286.991Z" fill="#C77213"/>
<path d="M311.42 711.696L293.549 670.347C289.721 661.483 290.373 651.321 295.301 643.015L330.342 582.042L292.497 550.154C286.984 545.336 283.277 538.787 281.985 531.582L270.772 461.499L165.647 545.949C159.482 550.921 151.641 553.335 143.746 552.678C135.85 552.027 128.514 548.364 123.246 542.445L87.8542 501.446L52.8125 497.942C26.5747 554.201 10.0995 614.516 4.10457 676.304L179.313 757.25L311.42 711.696Z" fill="#C77213"/>
<path d="M325.787 1159.88L298.805 1074.38C296.013 1067.28 296.013 1059.4 298.805 1052.3L333.847 973.458C338.063 964.407 346.44 957.996 356.273 956.287C366.096 954.562 376.149 957.694 383.255 964.697L488.38 1069.82C491.868 1073.05 494.409 1077.17 495.739 1081.74L525.174 1168.29L595.258 1289.88C648.493 1286.3 700.974 1275.33 751.193 1257.3C820.423 1232.11 884.006 1193.53 938.315 1143.76L877.693 1105.92L788.688 1150.42C783.798 1152.83 778.361 1153.92 772.919 1153.57L632.752 1142.01C626.888 1141.48 621.298 1139.29 616.639 1135.69C611.985 1132.09 608.453 1127.22 606.471 1121.68L560.917 993.081C558.984 987.042 558.984 980.548 560.917 974.509L605.77 828.035L523.773 703.637C519.902 697.608 518.171 690.447 518.867 683.313L536.738 530.18C537.401 523.889 540.023 517.965 544.234 513.251C548.45 508.531 554.04 505.263 560.216 503.899L642.914 484.977C650.366 483.537 658.091 484.933 664.568 488.886C671.051 492.839 675.825 499.065 677.955 506.352L710.194 619.187L817.772 662.288C823.236 664.248 827.912 667.938 831.087 672.8L915.187 787.737H1008.4C1017.07 787.808 1025.33 791.493 1031.18 797.899L1101.26 876.743C1135.49 749.645 1123.92 614.561 1068.57 495.139C1013.21 375.724 917.607 279.577 798.493 223.566C769.446 209.254 739.19 197.526 708.086 188.524L771.161 257.557C777.15 263.557 780.222 271.88 779.571 280.334L771.161 416.996C770.651 424.568 767.366 431.686 761.935 436.987C756.503 442.292 749.309 445.402 741.726 445.731L624.336 450.286C613.982 450.259 604.351 444.98 598.756 436.269L533.578 336.401L435.812 280.334C426.739 274.782 421.072 265.036 420.744 254.403V189.226C403.924 193.781 387.454 198.687 370.985 204.644C251.372 247.953 150.208 330.937 84.3438 439.774L107.121 441.876C114.836 442.829 121.942 446.568 127.095 452.389L152.325 481.473L273.919 381.955C282.422 375.177 293.844 373.32 304.055 377.049C309.087 378.965 313.516 382.179 316.906 386.368C320.289 390.551 322.507 395.555 323.328 400.878L341.55 510.558L390.608 551.907C396.061 556.534 399.719 562.924 400.934 569.971C402.15 577.017 400.852 584.266 397.266 590.453L356.968 660.537L381.848 718.355C385.198 726.191 385.198 735.049 381.848 742.885C378.354 750.687 371.74 756.66 363.626 759.354L188.418 819.626C185.171 820.162 181.853 820.162 178.606 819.626C174.144 819.527 169.747 818.575 165.64 816.823L0.24382 742.534C2.12738 844.669 31.8794 944.346 86.2879 1030.82C140.695 1117.28 217.694 1187.23 308.957 1233.12L325.787 1159.88Z" fill="#C77213"/>
<path d="M621.889 982.919L656.931 1082.79L770.115 1091.9L869.283 1043.89C878.476 1038.97 889.525 1038.97 898.718 1043.89L985.271 1097.86C1019.44 1058.15 1047.97 1013.94 1070.07 966.449C1073.93 958.74 1077.43 950.68 1080.58 942.971L995.784 848.359H900.47C890.708 848.485 881.52 843.754 875.941 835.744L788.337 715.551L675.153 669.997C666.365 666.547 659.74 659.134 657.281 650.023L628.547 550.855L595.258 558.214L581.241 678.757L666.042 805.958C670.986 813.525 672.273 822.921 669.546 831.539L621.889 982.919Z" fill="#C77213"/>
<path d="M1218.02 492.335C1160.19 331.929 1045.3 198.448 895.284 117.39L933.129 35.0416L855.337 -3.05176e-05L799.971 118.791C795.487 129.046 795.131 140.638 798.985 151.15C802.834 161.657 810.598 170.28 820.645 175.208C930.763 226.32 1023.21 308.981 1086.29 412.707C1149.36 516.436 1180.21 636.553 1174.92 757.839C1169.62 879.121 1128.43 996.094 1056.56 1093.94C984.695 1191.79 885.391 1266.08 771.239 1307.4C695.653 1335.09 615.332 1347.52 534.918 1343.97C454.503 1340.42 375.591 1320.97 302.732 1286.73C292.187 1282.37 280.338 1282.37 269.793 1286.73C259.182 1290.69 250.515 1298.6 245.614 1308.81L192.001 1423.74L269.793 1458.78L304.835 1381.34C372.942 1408.11 444.843 1423.96 517.888 1428.3V1596.5H237.555V1682H883.022V1596.5H602.689V1428.3C748.056 1419.86 887.157 1366.16 1000.5 1274.73C1113.83 1183.3 1195.73 1058.72 1234.74 918.414C1273.75 778.121 1267.9 629.138 1218.02 492.335H1218.02Z" fill="#C77213"/>
</g>
<defs>
<clipPath id="clip0_2_2">
<rect width="1260" height="1682" fill="white"/>
</clipPath>
</defs>
</svg>
