<?xml version="1.0" encoding="UTF-8"?>
<svg width="1200pt" height="1200pt" version="1.1" viewBox="0 0 1200 1200" xmlns="http://www.w3.org/2000/svg">
 <path d="m1050 393.75h-613.12c-13.125 0-24.375-11.25-24.375-24.375s11.25-24.375 24.375-24.375h613.12c13.125 0 24.375 11.25 24.375 24.375s-11.25 24.375-24.375 24.375z"/>
 <path d="m245.62 393.75h-95.625c-13.125 0-24.375-11.25-24.375-24.375s11.25-24.375 24.375-24.375h95.625c13.125 0 24.375 11.25 24.375 24.375s-9.375 24.375-24.375 24.375z"/>
 <path d="m1050 624.38h-161.25c-13.125 0-24.375-11.25-24.375-24.375s11.25-24.375 24.375-24.375h161.25c13.125 0 24.375 11.25 24.375 24.375s-11.25 24.375-24.375 24.375z"/>
 <path d="m697.5 624.38h-547.5c-13.125 0-24.375-11.25-24.375-24.375s11.25-24.375 24.375-24.375h547.5c13.125 0 24.375 11.25 24.375 24.375s-11.25 24.375-24.375 24.375z"/>
 <path d="m1050 856.88h-613.12c-13.125 0-24.375-11.25-24.375-24.375s11.25-24.375 24.375-24.375h613.12c13.125 0 24.375 11.25 24.375 24.375s-11.25 24.375-24.375 24.375z"/>
 <path d="m245.62 856.88h-95.625c-13.125 0-24.375-11.25-24.375-24.375 0-15 11.25-26.25 24.375-26.25h95.625c13.125 0 24.375 11.25 24.375 24.375 1.875 15-9.375 26.25-24.375 26.25z"/>
 <path d="m341.25 489.38c-65.625 0-120-54.375-120-120s54.375-120 120-120 120 54.375 120 120-52.5 120-120 120zm0-191.25c-39.375 0-71.25 31.875-71.25 71.25s31.875 71.25 71.25 71.25 71.25-31.875 71.25-71.25-31.875-71.25-71.25-71.25z"/>
 <path d="m793.12 720c-65.625 0-120-54.375-120-120s54.375-120 120-120 120 54.375 120 120-52.5 120-120 120zm0-191.25c-39.375 0-71.25 31.875-71.25 71.25s31.875 71.25 71.25 71.25 71.25-31.875 71.25-71.25-31.875-71.25-71.25-71.25z"/>
 <path d="m341.25 952.5c-65.625 0-120-54.375-120-120 0-67.5 54.375-120 120-120s120 54.375 120 120c1.875 65.625-52.5 120-120 120zm0-191.25c-39.375 0-71.25 31.875-71.25 71.25s31.875 71.25 71.25 71.25 71.25-31.875 71.25-71.25-31.875-71.25-71.25-71.25z"/>
</svg>
