<?xml version="1.0" encoding="UTF-8"?>
<svg width="1200pt" height="1200pt" version="1.1" viewBox="0 0 1200 1200" xmlns="http://www.w3.org/2000/svg">
 <path d="m144 283.8h502.56c12.578 46.238 44.914 84.578 88.367 104.78 43.457 20.195 93.609 20.195 137.07 0 43.457-20.199 75.789-58.539 88.367-104.78h95.641c15.562 0 29.941-8.3047 37.723-21.781 7.7812-13.477 7.7812-30.082 0-43.559-7.7812-13.477-22.16-21.781-37.723-21.781h-96c-12.578-46.242-44.91-84.578-88.367-104.78-43.457-20.195-93.609-20.195-137.07 0-43.457 20.199-75.789 58.535-88.367 104.78h-502.2c-15.562 0-29.941 8.3047-37.723 21.781-7.7812 13.477-7.7812 30.082 0 43.559 7.7812 13.477 22.16 21.781 37.723 21.781zm660-119.88c20.227 0.125 39.574 8.2773 53.797 22.664 14.219 14.383 22.148 33.824 22.043 54.051-0.10547 20.23-8.2383 39.586-22.609 53.82-14.371 14.238-33.805 22.184-54.031 22.102-20.227-0.085938-39.594-8.1953-53.844-22.551-14.25-14.355-22.219-33.781-22.156-54.008 0.097656-20.273 8.2422-39.68 22.645-53.945 14.402-14.27 33.883-22.23 54.156-22.133z" fill="#004220"/>
 <path d="m1056 556.44h-502.68c-12.52-46.273-44.832-84.652-88.293-104.88-43.461-20.223-93.633-20.223-137.09 0-43.461 20.223-75.773 58.602-88.293 104.88h-95.641c-15.562 0-29.941 8.3008-37.723 21.777-7.7812 13.48-7.7812 30.082 0 43.562 7.7812 13.477 22.16 21.777 37.723 21.777h96c12.52 46.273 44.832 84.652 88.293 104.88 43.461 20.223 93.633 20.223 137.09 0 43.461-20.223 75.773-58.602 88.293-104.88h502.32c15.562 0 29.941-8.3008 37.723-21.777 7.7812-13.48 7.7812-30.082 0-43.562-7.7812-13.477-22.16-21.777-37.723-21.777zm-660 119.88c-20.215-0.12891-39.551-8.2695-53.77-22.637-14.219-14.367-22.156-33.789-22.07-54 0.085938-20.215 8.1836-39.57 22.523-53.816 14.336-14.25 33.742-22.227 53.957-22.184 20.211 0.039062 39.582 8.0977 53.863 22.406 14.277 14.309 22.297 33.695 22.297 53.91-0.03125 20.316-8.1484 39.781-22.559 54.102-14.41 14.32-33.926 22.312-54.242 22.219z" fill="#004220"/>
 <path d="m1056 916.2h-96c-12.578-46.238-44.91-84.578-88.367-104.78-43.457-20.195-93.609-20.195-137.07 0-43.457 20.199-75.789 58.539-88.367 104.78h-502.2c-15.562 0-29.941 8.3047-37.723 21.781-7.7812 13.477-7.7812 30.082 0 43.559 7.7812 13.477 22.16 21.781 37.723 21.781h502.56c12.578 46.242 44.914 84.578 88.367 104.78 43.457 20.195 93.609 20.195 137.07 0 43.457-20.199 75.789-58.535 88.367-104.78h95.641c15.562 0 29.941-8.3047 37.723-21.781 7.7812-13.477 7.7812-30.082 0-43.559-7.7812-13.477-22.16-21.781-37.723-21.781zm-252 120c-20.277 0.12891-39.77-7.8164-54.176-22.082-14.41-14.266-22.551-33.68-22.625-53.957-0.074219-20.273 7.9219-39.746 22.227-54.117 14.305-14.371 33.738-22.461 54.012-22.48 20.277-0.023438 39.73 8.0234 54.062 22.367 14.332 14.34 22.371 33.793 22.34 54.07-0.125 20.098-8.1484 39.34-22.336 53.574-14.191 14.234-33.406 22.316-53.504 22.504z" fill="#004220"/>
</svg>
