<?xml version="1.0" encoding="UTF-8"?>
<svg width="1200pt" height="1200pt" version="1.1" viewBox="0 0 1200 1200" xmlns="http://www.w3.org/2000/svg">
 <path d="m1039.2 276c-10.801-22.801-28.801-39.602-54-48-43.199-15.602-90 2.3984-112.8 42l8.3984-55.199c8.3984-49.199-24-94.801-73.199-105.6-24-4.8008-49.199 0-69.602 13.199-20.398 13.199-34.801 34.801-40.801 58.801l-10.801 55.199-3.6016-112.8c-2.3984-50.398-43.199-90-92.398-90-51.602 0-92.398 42-92.398 92.398v106.8l-17.996-67.195c-12-48-60-78-110.4-67.199-50.398 10.801-82.801 60-72 110.4l64.801 304.8-34.801-56.398c-20.398-33.602-57.602-50.398-96-44.398-28.801 4.8008-52.801 21.602-67.199 46.801-14.398 25.199-16.801 55.199-6 81.602l42 105.6c42 105.6 104.4 264 238.8 344.4v150c0 14.398 12 26.398 26.398 26.398 14.398 0 26.398-12 26.398-26.398v-166.81c0-9.6016-6-19.199-14.398-24-127.2-67.199-188.4-222-228-324l-42-105.6c-4.8008-12-3.6016-24 2.3984-36 6-10.801 16.801-18 28.801-20.398 16.801-2.3984 32.398 4.8008 42 19.199l55.199 91.199c15.602 25.199 33.602 46.801 56.398 66 4.8008 3.6016 10.801 6 16.801 6 126 2.3984 150 128.4 151.2 134.4 2.3984 14.398 16.801 24 31.199 21.602 14.398-2.3984 24-16.801 21.602-31.199-9.6016-56.398-60-160.8-178.8-176.4l-85.199-399.6c-4.8008-21.602 9.6016-42 31.199-46.801 20.398-4.8008 40.801 8.3984 45.602 27.602l69.602 284.4c3.6016 13.199 15.602 21.602 28.801 20.398 13.199-1.1992 24-13.199 24-26.398l-0.003906-327.6c0-21.602 18-39.602 39.602-39.602s38.398 16.801 39.602 37.199l12 342c0 13.199 10.801 25.199 25.199 26.398 14.398 1.1992 26.398-8.3984 28.801-21.602l56.398-280.8c2.3984-10.801 8.3984-19.199 16.801-25.199 8.3984-6 19.199-7.1992 30-4.8008 20.398 4.8008 33.602 24 30 44.398l-43.199 286.81c-2.3984 13.199 6 26.398 19.199 30s27.602-3.6016 32.398-15.602l81.602-206.4c8.3984-19.199 30-28.801 50.398-21.602 9.6016 3.6016 18 10.801 21.602 20.398 4.8008 9.6016 4.8008 20.398 1.1992 30l-49.199 135.6c-13.199 34.801-22.801 73.199-32.398 120-6 26.398-4.8008 61.199-4.8008 102 0 104.4 0 234-93.602 261.6-12 3.6016-19.199 14.398-19.199 26.398v165.6c0 14.398 12 26.398 26.398 26.398 14.398 0 26.398-12 26.398-26.398l0.003906-147.6c114-48 114-196.8 114-306 0-36 0-69.602 4.8008-91.199 9.6016-44.398 19.199-80.398 31.199-112.8l49.199-135.6c7.1992-22.797 6-47.996-3.6016-70.797z" fill="#007335"/>
</svg>
