<?xml version="1.0" encoding="UTF-8"?>
<svg width="1200pt" height="1200pt" version="1.1" viewBox="0 0 1200 1200" xmlns="http://www.w3.org/2000/svg">
 <path d="m935.16 606.24c-62.156-121.22-221.44-94.969-339.84-26.344-13.359 7.7344-22.641 21-25.312 36.234-2.625 15.234 1.5938 30.844 11.531 42.703 28.969 33.75 75.188 44.016 119.62 40.922h0.046876c25.266-18.656 53.719-32.531 83.953-40.875 23.672-6.5625 34.406 29.25 9.375 36.281-69.562 19.547-136.18 77.625-154.87 164.72-5.1562 24.094-42.047 16.828-36.562-8.4844v-0.046876c9.2344-42.656 29.25-82.219 58.078-114.98-45.094-5.0156-83.109-23.625-108.66-53.766-17.062-20.109-24.375-46.734-19.922-72.703 4.4531-26.016 20.156-48.656 42.938-61.922 64.547-37.5 144.1-65.906 219.28-63.422l0.046876-310.08c0-87.703-122.9-88.688-122.9-30.141v329.39c0 25.969-37.5 25.219-37.5 0.65625v-377.95c0-54.375-104.16-54.375-104.16 0v377.34c0 25.969-37.5 25.219-37.5 0.65625v-330.1c0-54.703-104.16-53.719-104.16 0l-0.046875 406.82c0 25.969-37.5 25.219-37.5 0.65625v-285.74c0-56.812-105.14-51.422-105.14 23.438l0.046875 383.16c0 129.37 92.719 240.56 92.719 369.94v101.16h430.31v-95.156c0-105.94 253.5-272.06 166.13-442.36z" fill="#007335"/>
</svg>
