<?xml version="1.0" encoding="UTF-8"?>
<svg width="1200pt" height="1200pt" version="1.1" viewBox="0 0 1200 1200" xmlns="http://www.w3.org/2000/svg">
 <path d="m354.36 686.76h-114.36c-6.3633 0-12.469 2.5273-16.969 7.0273-4.5039 4.5-7.0312 10.605-7.0312 16.973v240c0 6.3633 2.5273 12.469 7.0312 16.969 4.5 4.5 10.605 7.0312 16.969 7.0312h114.36c6.3672 0 12.469-2.5312 16.973-7.0312 4.5-4.5 7.0273-10.605 7.0273-16.969v-240c0-6.3672-2.5273-12.473-7.0273-16.973-4.5039-4.5-10.605-7.0273-16.973-7.0273zm-24 240h-66.359v-192h66.359zm225.84-315.48h-114.36c-6.3633 0-12.469 2.5273-16.969 7.0273-4.5039 4.5-7.0312 10.605-7.0312 16.973v315c0 6.3633 2.5273 12.469 7.0312 16.969 4.5 4.5 10.605 7.0312 16.969 7.0312h114.36c6.3672 0 12.469-2.5312 16.973-7.0312 4.5-4.5 7.0273-10.605 7.0273-16.969v-315c0-6.3672-2.5273-12.473-7.0273-16.973-4.5039-4.5-10.605-7.0273-16.973-7.0273zm-24 315h-66.359v-267h66.359zm225.96-377.88h-114.36c-6.3672 0-12.469 2.5312-16.973 7.0312-4.5 4.5-7.0273 10.605-7.0273 16.969v377.88c0 6.3633 2.5273 12.469 7.0273 16.969 4.5039 4.5 10.605 7.0312 16.973 7.0312h114.36c6.3633 0 12.469-2.5312 16.969-7.0312 4.5039-4.5 7.0312-10.605 7.0312-16.969v-377.88c0-6.3633-2.5273-12.469-7.0312-16.969-4.5-4.5-10.605-7.0312-16.969-7.0312zm-24 377.88-66.359 0.003906v-329.88h66.359zm225.84-501h-114.36c-6.3672 0-12.469 2.5273-16.973 7.0273-4.5 4.5-7.0273 10.605-7.0273 16.973v501c0 6.3633 2.5273 12.469 7.0273 16.969 4.5039 4.5 10.605 7.0312 16.973 7.0312h114.36c6.3633 0 12.469-2.5312 16.969-7.0312 4.5039-4.5 7.0312-10.605 7.0312-16.969v-501c0-6.3672-2.5273-12.473-7.0312-16.973-4.5-4.5-10.605-7.0273-16.969-7.0273zm-24 501h-66.359v-453h66.359zm-689.88-351.12c-0.74219-6.3359 1.0664-12.707 5.0273-17.703 3.9648-5 9.7539-8.2148 16.09-8.9375 3.6016 0 351.24-43.922 588.72-274.8h-52.676c-8.5742 0-16.5-4.5742-20.785-12-4.2891-7.4258-4.2891-16.574 0-24 4.2852-7.4258 12.211-12 20.785-12h114.36c6.3633 0 12.469 2.5312 16.969 7.0312 4.5039 4.5 7.0312 10.605 7.0312 16.969v114.48c0 8.5742-4.5742 16.5-12 20.785-7.4258 4.2891-16.574 4.2891-24 0-7.4258-4.2852-12-12.211-12-20.785v-60c-248.88 246-605.64 290.16-620.88 292.08h-2.7617c-5.875 0.011719-11.551-2.1328-15.953-6.0234-4.4023-3.8945-7.2227-9.2656-7.9258-15.098z" fill="#00449e"/>
</svg>
