<svg width="1024" height="999" viewBox="0 0 1024 999" fill="none" xmlns="http://www.w3.org/2000/svg">
<g clip-path="url(#clip0_3_9)">
<path d="M184.48 614.68H32C23.5156 614.68 15.3747 618.05 9.37466 624.05C3.36946 630.05 -0.000274658 638.19 -0.000274658 646.68V966.68C-0.000274658 975.165 3.36946 983.306 9.37466 989.306C15.3747 995.306 23.5147 998.681 32 998.681H184.48C192.97 998.681 201.105 995.306 207.111 989.306C213.111 983.306 216.48 975.166 216.48 966.68V646.68C216.48 638.191 213.111 630.05 207.111 624.05C201.105 618.05 192.971 614.68 184.48 614.68ZM152.48 934.68H64.0013V678.68H152.48V934.68ZM453.6 514.04H301.12C292.636 514.04 284.495 517.41 278.495 523.41C272.489 529.41 269.12 537.55 269.12 546.04V966.04C269.12 974.525 272.489 982.666 278.495 988.666C284.495 994.666 292.635 998.041 301.12 998.041H453.6C462.09 998.041 470.225 994.666 476.231 988.666C482.231 982.666 485.6 974.526 485.6 966.04V546.04C485.6 537.551 482.231 529.41 476.231 523.41C470.225 517.41 462.091 514.04 453.6 514.04ZM421.6 934.04H333.121V578.04H421.6V934.04ZM722.88 430.2H570.4C561.91 430.2 553.775 433.575 547.769 439.575C541.769 445.575 538.4 453.715 538.4 462.2V966.04C538.4 974.525 541.769 982.666 547.769 988.666C553.775 994.666 561.909 998.04 570.4 998.04H722.88C731.364 998.04 739.505 994.666 745.505 988.666C751.511 982.666 754.88 974.526 754.88 966.04V462.2C754.88 453.716 751.511 445.575 745.505 439.575C739.505 433.575 731.365 430.2 722.88 430.2ZM690.88 934.04L602.401 934.045V494.205H690.88V934.04ZM992 266.04H839.52C831.03 266.04 822.895 269.41 816.889 275.41C810.889 281.41 807.52 289.55 807.52 298.04V966.04C807.52 974.525 810.889 982.666 816.889 988.666C822.895 994.666 831.029 998.041 839.52 998.041H992C1000.48 998.041 1008.63 994.666 1014.63 988.666C1020.63 982.666 1024 974.526 1024 966.04V298.04C1024 289.551 1020.63 281.41 1014.63 275.41C1008.63 269.41 1000.49 266.04 992 266.04ZM960 934.04H871.521V330.04H960V934.04ZM40.16 465.88C39.1704 457.432 41.5818 448.937 46.863 442.276C52.1494 435.609 59.8683 431.323 68.3164 430.359C73.1185 430.359 536.636 371.797 853.276 63.9593H783.042C771.609 63.9593 761.042 57.8603 755.328 47.9593C749.61 38.0582 749.61 25.8606 755.328 15.9592C761.042 6.05816 771.61 -0.0407715 783.042 -0.0407715H935.522C944.006 -0.0407715 952.147 3.33417 958.147 9.33417C964.152 15.3342 967.522 23.4742 967.522 31.9595V184.6C967.522 196.032 961.423 206.6 951.522 212.313C941.621 218.032 929.423 218.032 919.522 212.313C909.621 206.599 903.522 196.032 903.522 184.6V104.6C571.682 432.6 96.002 491.48 75.682 494.04H71.9997C64.1664 494.055 56.5984 491.196 50.7291 486.008C44.8593 480.816 41.0988 473.654 40.1613 465.878L40.16 465.88Z" fill="#00449E"/>
</g>
<defs>
<clipPath id="clip0_3_9">
<rect width="1024" height="999" fill="white"/>
</clipPath>
</defs>
</svg>
