<svg width="1386" height="1202" viewBox="0 0 1386 1202" fill="none" xmlns="http://www.w3.org/2000/svg">
<g clip-path="url(#clip0_123_34)">
<path d="M1263 103.506C1186.13 34.0691 1085.37 -2.86823 981.88 0.506432C878.391 3.88137 780.2 47.2558 708.013 121.506L693.013 136.506L678.013 121.506C605.825 47.2558 507.64 3.8811 404.147 0.506432C300.641 -2.8685 199.893 34.0691 123.027 103.506C46.0267 176.069 1.71467 276.693 0.089336 382.453C-1.4732 488.265 39.7773 590.133 114.527 665.013L622.527 1173.01C661.527 1211.76 724.527 1211.76 763.527 1173.01L1271.53 665.013C1346.28 590.138 1387.53 488.266 1385.96 382.453C1384.34 276.704 1340.03 176.08 1263.03 103.506H1263ZM1201 594.52L693 1102.52L185 594.52C129.563 538.457 99.1253 462.394 100.625 383.573C102.125 304.761 135.437 229.88 193 176C246.063 126.937 315.749 99.9371 388.013 100.5C470.951 100.687 550.44 133.75 609 192.5L659 242.5C668.375 251.937 681.188 257.312 694.5 257.312C707.812 257.312 720.625 251.937 730 242.5L780 192.5C833.625 137.312 906.375 104.874 983.187 101.75C1060.06 98.6879 1135.19 125.25 1193 176.001C1250.31 230.064 1283.37 305.064 1284.63 383.868C1285.81 462.68 1255.13 538.681 1199.5 594.494L1201 594.52Z" fill="#007335"/>
</g>
<defs>
<clipPath id="clip0_123_34">
<rect width="1386" height="1202" fill="white"/>
</clipPath>
</defs>
</svg>
