<?xml version="1.0" encoding="UTF-8"?>
<svg width="1200pt" height="1200pt" version="1.1" viewBox="0 0 1200 1200" xmlns="http://www.w3.org/2000/svg">
 <path d="m844.2 156.96c-56.648 0.027343-111.62 19.23-155.96 54.488-44.34 35.254-75.441 84.484-88.234 139.67-13.801-60.102-49.27-113-99.621-148.6-50.352-35.594-112.06-51.379-173.32-44.34-61.262 7.0391-117.78 36.41-158.74 82.496-40.969 46.086-63.512 105.66-63.32 167.32 0 312 495 635.04 495 635.04s495-323.04 495-635.04c0.042969-44.051-11.52-87.336-33.52-125.5-22.004-38.164-53.668-69.859-91.812-91.898-38.141-22.039-81.418-33.641-125.47-33.641z" fill="#ff001b"/>
</svg>
