<?xml version="1.0" encoding="UTF-8"?>
<svg width="1200pt" height="1200pt" version="1.1" viewBox="0 0 1200 1200" xmlns="http://www.w3.org/2000/svg">
 <path d="m1027.5 220.13c-57.656-52.078-133.22-79.781-210.84-77.25-77.617 2.5312-151.26 35.062-205.4 90.75l-11.25 11.25-11.25-11.25c-54.141-55.688-127.78-88.219-205.4-90.75-77.629-2.5312-153.19 25.172-210.84 77.25-57.75 54.422-90.984 129.89-92.203 209.21-1.1719 79.359 29.766 155.76 85.828 211.92l381 381c29.25 29.062 76.5 29.062 105.75 0l381-381c56.062-56.156 87-132.56 85.828-211.92-1.2188-79.312-34.453-154.78-92.203-209.21zm-46.5 368.26-381 381-381-381c-41.578-42.047-64.406-99.094-63.281-158.21 1.125-59.109 26.109-115.27 69.281-155.68 39.797-36.797 92.062-57.047 146.26-56.625 62.203 0.14062 121.82 24.938 165.74 69l37.5 37.5c7.0312 7.0781 16.641 11.109 26.625 11.109s19.594-4.0312 26.625-11.109l37.5-37.5c40.219-41.391 94.781-65.719 152.39-68.062 57.656-2.2969 114 17.625 157.36 55.688 42.984 40.547 67.781 96.797 68.719 155.9 0.89062 59.109-22.125 116.11-63.844 157.97z" fill="#007335"/>
</svg>
