<?xml version="1.0" encoding="UTF-8"?>
<svg width="1200pt" height="1200pt" version="1.1" viewBox="0 0 1200 1200" xmlns="http://www.w3.org/2000/svg">
 <path d="m600 75c-289.5 0-525 235.5-525 525s235.5 525 525 525 525-235.5 525-525-235.5-525-525-525zm0 975c-248.26 0-450-201.74-450-450s201.74-450 450-450 450 201.74 450 450-201.74 450-450 450z"/>
 <path d="m637.5 337.5c0 50.016-75 50.016-75 0s75-50.016 75 0z"/>
 <path d="m600 450c-20.625 0-37.5 16.875-37.5 37.5v375c0 20.625 16.875 37.5 37.5 37.5s37.5-16.875 37.5-37.5v-375c0-20.625-16.875-37.5-37.5-37.5z"/>
</svg>
