<?xml version="1.0" encoding="UTF-8"?>
<svg width="1200pt" height="1200pt" version="1.1" viewBox="0 0 1200 1200" xmlns="http://www.w3.org/2000/svg">
 <path d="m600 120c-127.3 0-249.39 50.57-339.41 140.59-90.02 90.016-140.59 212.11-140.59 339.41s50.57 249.39 140.59 339.41c90.016 90.02 212.11 140.59 339.41 140.59s249.39-50.57 339.41-140.59c90.02-90.016 140.59-212.11 140.59-339.41 0-84.258-22.18-167.03-64.309-240s-102.72-133.56-175.69-175.69-155.74-64.309-240-64.309zm0 912c-114.57 0-224.45-45.516-305.47-126.53s-126.53-190.89-126.53-305.47 45.516-224.45 126.53-305.47 190.89-126.53 305.47-126.53 224.45 45.516 305.47 126.53 126.53 190.89 126.53 305.47-45.516 224.45-126.53 305.47-190.89 126.53-305.47 126.53z" fill="#007335"/>
 <path d="m576 504h48v384h-48z" fill="#007335"/>
 <path d="m552 312h96v96h-96z" fill="#007335"/>
</svg>
