<?xml version="1.0" encoding="UTF-8"?>
<svg width="1200pt" height="1200pt" version="1.1" viewBox="0 0 1200 1200" xmlns="http://www.w3.org/2000/svg">
 <path d="m600 0c331.18 0 600 268.82 600 600s-268.82 600-600 600-600-268.82-600-600 268.82-600 600-600zm0 60.027c-298.43 0-539.97 241.55-539.97 539.97s241.55 539.97 539.97 539.97 539.97-241.55 539.97-539.97-241.55-539.97-539.97-539.97z" fill="#004220"/>
 <path d="m629.97 444.49v449.8h-60.027v-449.8z" fill="#004220"/>
 <path d="m600 304.45c23.219 0 42.027 18.809 42.027 42.027s-18.809 42.027-42.027 42.027-42.027-18.809-42.027-42.027 18.809-42.027 42.027-42.027z" fill="#004220" fill-rule="evenodd"/>
</svg>
