<svg width="926" height="926" viewBox="0 0 926 926" fill="none" xmlns="http://www.w3.org/2000/svg">
<g clip-path="url(#clip0_1_2)">
<path fill-rule="evenodd" clip-rule="evenodd" d="M463.068 0.162231C207.63 0.162231 0.148773 207.481 0.148773 462.919C0.148773 718.357 207.63 925.838 463.068 925.838C718.506 925.838 925.865 718.357 925.865 462.919C925.865 207.481 718.506 0.162231 463.068 0.162231ZM463.068 32.0846C701.258 32.0846 893.938 224.738 893.938 462.928C893.938 701.119 701.258 893.921 463.068 893.921C224.877 893.921 32.1022 701.119 32.1022 462.928C32.1022 224.738 224.877 32.0846 463.068 32.0846ZM554.965 242.147C550.725 241.931 546.575 243.414 543.433 246.265L296.943 469.777C293.601 472.803 291.695 477.095 291.695 481.604C291.695 486.113 293.601 490.411 296.943 493.437L543.433 716.826C546.564 719.693 550.709 721.193 554.954 720.992C559.194 720.792 563.18 718.912 566.032 715.765C568.888 712.618 570.372 708.468 570.155 704.229C569.939 699.983 568.038 696.002 564.881 693.167L331.448 481.564L564.881 269.96C571.401 264.057 571.913 253.989 566.032 247.452C563.196 244.284 559.215 242.373 554.965 242.151L554.965 242.147Z" fill="#004220"/>
</g>
<defs>
<clipPath id="clip0_1_2">
<rect width="926" height="926" fill="white"/>
</clipPath>
</defs>
</svg>
