<?xml version="1.0" encoding="UTF-8"?>
<svg width="1200pt" height="1200pt" version="1.1" viewBox="0 0 1200 1200" xmlns="http://www.w3.org/2000/svg">
 <path d="m657.28 84.375c-38.062-4.5469-76.5-4.5469-114.56 0-318.19 38.156-452.39 432.1-245.44 676.78l302.72 357.89 302.72-357.89c206.95-244.69 72.75-638.63-245.44-676.78zm-57.281 549.1c-60.938 0-115.92-36.703-139.22-93.047-23.344-56.297-10.453-121.13 32.672-164.26 43.078-43.125 107.91-56.016 164.26-32.672 56.297 23.344 93.047 78.281 93.047 139.26 0 39.938-15.891 78.281-44.156 106.55-28.266 28.266-66.609 44.156-106.59 44.156z" fill="#007335"/>
</svg>
