<?xml version="1.0" encoding="UTF-8"?>
<svg width="1200pt" height="1200pt" version="1.1" viewBox="0 0 1200 1200" xmlns="http://www.w3.org/2000/svg">
 <path d="m1125 1087.5v-75h-75v-75h-900v75h-77.344v75h-72.656v37.5h1200v-37.5z" fill="#004220"/>
 <path d="m1050 900v-412.5l37.5-75h-975l37.5 75v412.5h150v-337.5c0-41.438 33.562-75 75-75s75 33.562 75 75v337.5h75v-337.5c0-41.438 33.562-75 75-75s75 33.562 75 75v337.5h75v-337.5c0-41.438 33.562-75 75-75s75 33.562 75 75v337.5z" fill="#004220"/>
 <path d="m1125 300-525-225-525 225v75h1050z" fill="#004220"/>
</svg>
