<svg width="1204" height="1600" viewBox="0 0 1204 1600" fill="none" xmlns="http://www.w3.org/2000/svg">
<path d="M1163.6 347.2C763.6 305.601 646.8 75.2 642 64C634 48 619.599 38.4014 602 38.4014C584.401 38.4014 570 48.0003 562 64C560.401 67.1979 445.197 305.6 40.3999 347.2C17.9986 348.799 0.399902 368.003 0.399902 390.397V788.797C0.399902 1249.6 558.8 1542.4 581.2 1553.6C587.601 1556.8 594.002 1558.4 602.003 1558.4C610.003 1558.4 616.404 1556.8 622.805 1553.6C646.805 1540.8 1203.61 1249.6 1203.61 788.797L1203.59 391.997C1203.59 369.596 1186 350.399 1163.59 347.195L1163.6 347.2ZM840.4 1014.4H654.8V1137.6C654.8 1145.6 648.399 1152 640.399 1152H565.201C557.201 1152 550.8 1145.6 550.8 1137.6V1014.4H363.6C344.403 1014.4 333.199 991.999 346.001 977.597L466.001 835.197H397.199C378.001 835.197 366.797 812.796 379.6 798.395L507.6 647.995H470.797C451.6 647.995 440.396 625.593 453.199 611.192L584.396 455.992C593.995 444.794 609.995 444.794 619.593 455.992L750.791 611.192C763.593 625.593 752.39 647.995 733.192 647.995H696.389L824.389 798.395C837.191 812.796 825.988 835.197 806.791 835.197H737.988L857.988 977.597C870.801 991.999 859.597 1014.4 840.4 1014.4Z" fill="black"/>
</svg>
