<?xml version="1.0" encoding="UTF-8"?>
<svg width="1200pt" height="1200pt" version="1.1" viewBox="0 0 1200 1200" xmlns="http://www.w3.org/2000/svg">
 <path d="m1021.2 260.4c-300-31.199-387.6-204-391.2-212.4-6-12-16.801-19.199-30-19.199s-24 7.1992-30 19.199c-1.1992 2.3984-87.602 181.2-391.2 212.4-16.801 1.1992-30 15.602-30 32.398v298.8c0 345.6 418.8 565.2 435.6 573.6 4.8008 2.3984 9.6016 3.6016 15.602 3.6016s10.801-1.1992 15.602-3.6016c18-9.6016 435.6-228 435.6-573.6l-0.007812-297.6c0-16.801-13.199-31.199-30-33.602zm-242.4 500.4h-139.2v92.398c0 6-4.8008 10.801-10.801 10.801h-56.398c-6 0-10.801-4.8008-10.801-10.801v-92.398h-140.4c-14.398 0-22.801-16.801-13.199-27.602l90-106.8h-51.602c-14.398 0-22.801-16.801-13.199-27.602l96-112.8h-27.602c-14.398 0-22.801-16.801-13.199-27.602l98.398-116.4c7.1992-8.3984 19.199-8.3984 26.398 0l98.398 116.4c9.6016 10.801 1.1992 27.602-13.199 27.602h-27.602l96 112.8c9.6016 10.801 1.1992 27.602-13.199 27.602h-51.602l90 106.8c9.6094 10.801 1.207 27.602-13.191 27.602z" fill="#004220"/>
</svg>
