<?xml version="1.0" encoding="UTF-8"?>
<svg width="1200pt" height="1200pt" version="1.1" viewBox="0 0 1200 1200" xmlns="http://www.w3.org/2000/svg">
 <path d="m574.6 420.79c-33.516-33.516 17.391-84.422 50.906-50.906l205.22 205.26c13.031 13.219 13.641 35.859-0.60937 50.297l-204.61 204.66c-33.516 33.516-84.422-17.391-50.906-50.906l143.16-143.21h-643.6c-47.391 0-47.391-72 0-72h643.6zm-154.4-110.06c156.05-146.9 400.92-143.48 552.89 8.4844 155.06 155.06 155.06 406.45 0 561.52-151.97 151.97-396.79 155.39-552.89 8.4844-34.406-32.391-83.672 19.922-49.219 52.312 184.03 173.16 473.16 169.97 653.02-9.8906 183.19-183.19 183.19-480.19 0-663.32-179.86-179.81-469.03-183.05-653.02-9.8906-34.453 32.438 14.766 84.703 49.219 52.312z" fill-rule="evenodd"/>
</svg>
