<?xml version="1.0" encoding="UTF-8"?>
<svg width="1200pt" height="1200pt" version="1.1" viewBox="0 0 1200 1200" xmlns="http://www.w3.org/2000/svg">
 <path d="m493.62 621.02c0.76953-1.8828 2.3672-3.3164 4.3359-3.8711 2.0664-0.58594 4.2812-0.13672 5.957 1.2031 13.414 10.73 32.668 19.238 50.898 16.34 6.3828-1.0156 11.688-5.1133 15.883-10.535 7.043-9.0938 10.988-21.938 10.988-33.09 0-9.3828-5.5-14.996-12.477-19.957-8.8945-6.3281-20.09-11.586-29.367-19.184-16.301-13.344-37.121-17.816-49.781-13.598-8.1875 2.7305-45.855 13.855-54.602 62.766-1.3633 7.6055-0.13281 16.641 2.7422 26.609 4.6641 16.184 13.715 34.574 24.617 53.293 27.973 48.051 68.082 98.059 80.988 119.15 22.281 36.406 23.695 53.656 24.594 100.75 0.28906 15.121 10.004 23.445 21.266 28.223 19.004 8.0586 42.543 6.6016 42.543 6.6016 0.30859-0.019531 0.61719-0.015625 0.92578 0.007813 0 0 17.477 1.3789 34.871-3.4648 15.906-4.4336 32.082-14.266 31.762-37.051-0.89453-63.637 18.957-85.48 39.355-118.7 19.262-31.371 27.988-80.395 25.594-137.95-1.7578-42.16-2.6445-77.031-6.7656-101.29-2.4258-14.289-5.5664-24.625-11.562-29.719-14.094-11.969-29.633-14.352-41.297-3.2109-13.039 12.457-21.562 35.43-21.562 57.188 0 21.223 0.27344 39.312 2.2148 52 1.0195 6.6992 2.1016 11.676 4.582 14.043 0.96484 0.91406 2.5625 1.4766 4.4219 1.9961 4.0391 1.1328 9.1836 1.5625 14.324 1.3398 5.0859-0.22266 10.18-1.082 14.18-2.7148 1.8945-0.77344 3.5352-1.6484 4.5117-2.8867 0.84375-1.0625 1.0508-2.5156 1.1719-4.1797 0.19922-2.7891-0.097657-6.0352-0.55078-9.668-1.6055-12.871-5.1016-29.793-1.9531-48.102 2.2617-13.156 5.9922-22.516 9.5312-28.973 1.7578-3.2148 5.8008-4.3945 9.0156-2.6328s4.3945 5.8008 2.6328 9.0156c-3.0273 5.5312-6.1523 13.57-8.0898 24.84-2.8945 16.832 0.57031 32.375 2.043 44.207 1.3047 10.453 0.67188 18.609-3.3789 23.734-4.8711 6.1523-16.57 10.109-28.535 10.633-11.906 0.51953-23.645-2.375-28.492-6.9961-3.0898-2.9492-5.6602-8.0273-7.3203-15.152-3.0703-13.203-3.5938-34.621-3.5938-60.504 0-25.473 10.402-52.207 25.672-66.793 16.648-15.906 38.949-14.395 59.07 2.6914 7.6914 6.5273 12.949 19.289 16.062 37.621 4.1875 24.656 5.1523 60.098 6.9375 102.96 2.5312 60.727-7.2148 112.35-27.543 145.45-19.191 31.258-38.238 51.688-37.395 111.56 0.42969 30.348-20.293 44.133-41.477 50.031-17.926 4.9961-35.93 4.1406-39.023 3.9453-3.6172 0.15625-28.043 0.83984-48.066-7.6523-15.863-6.7266-28.957-18.902-29.363-40.199-0.83984-43.941-1.8516-60.109-22.641-94.078-15.129-24.719-67.402-89.008-94.172-143.55-12.184-24.824-18.953-47.855-15.926-64.77 10.176-56.887 53.953-69.852 63.477-73.027 15.801-5.2695 42.059-0.73047 62.395 15.922 9.043 7.3984 19.988 12.473 28.652 18.633 10.586 7.5273 18.066 16.555 18.066 30.785 0 13.898-4.9922 29.883-13.766 41.219-6.3516 8.2031-14.645 13.992-24.309 15.527-19.508 3.1016-40.125-4.2539-55.785-15.012-4.3125 4.1328-12.238 9.0977-26.594 12.008-3.5898 0.73047-7.0977-1.5977-7.8281-5.1875-0.73047-3.5938 1.5977-7.1016 5.1914-7.832 16.484-3.3398 21.629-10.609 21.742-10.77z" fill="#007335" fill-rule="evenodd"/>
 <path d="m710.04 495.77s-2.3633-21.027-25.793-26.309c-8.8086-1.9883-15.445-1.8242-21.199-0.15625-8.1992 2.3828-14.695 8.043-23.262 16.363-13.742 13.344-27.641 22.535-28.582 57.992-0.61719 23.168-0.65234 54.766 1.6289 75.82 1.0898 10.055 2.8711 17.902 5.0703 21.977 7.7969 14.43 23.84 23.543 45.832 18.047 6.7812-1.6953 13.523-4.3281 18.609-8.1406 6.1211-4.5898 10.035-10.805 10.035-18.969 0-3.6641-2.9766-6.6406-6.6406-6.6406-3.668 0-6.6406 2.9766-6.6406 6.6406 0 3.6484-1.9922 6.2891-4.7266 8.3398-3.7695 2.8281-8.832 4.625-13.859 5.8828-14.723 3.6797-25.703-1.8125-30.926-11.477-1.7031-3.1523-2.707-9.3086-3.5469-17.09-2.2305-20.559-2.1602-51.414-1.5586-74.039 0.79688-29.965 12.941-37.535 24.555-48.812 10.734-10.418 16.559-16.328 32.289-12.781 13.738 3.1016 15.535 15.02 15.535 15.02 0.46094 3.6367 3.7852 6.2148 7.4219 5.7539 3.6367-0.45703 6.2188-3.7852 5.7578-7.4219z" fill="#007335" fill-rule="evenodd"/>
 <path d="m649.56 486.23s-13.883-16.703-31.512-18.203c-21.801-1.8516-35.781 7.5195-52.133 23.871-23.059 23.059-26.379 41.414-22.391 56.574 0.92969 3.543 4.5664 5.6641 8.1133 4.7305 3.5469-0.93359 5.6641-4.5703 4.7305-8.1133-3.1289-11.891 0.85547-25.715 18.938-43.797 13.172-13.168 24.055-21.52 41.613-20.027 12.609 1.0703 22.344 13.355 22.344 13.355 2.3125 2.8438 6.5 3.2695 9.3438 0.95703 2.8398-2.3164 3.2695-6.5039 0.95312-9.3477z" fill="#007335" fill-rule="evenodd"/>
 <path d="m579.97 630.64c0.085938 0.15625 3.9805 6.9219 16.707 6.9219 5.2656 0 9.8047-0.56641 13.328-1.8242 2.2461-0.80859 4.043-1.75 4.8516-3.3594 1.6367-3.2812 5.6328-4.6133 8.9062-2.9688 3.2812 1.6367 4.6133 5.6289 2.9727 8.9062-1.7773 3.5625-4.8633 6.5352-9.2578 8.6719-5.0859 2.4727-12.203 3.8594-20.801 3.8594-12.598 0-19.652-3.9844-23.66-7.6406-5.0234-4.5859-5.918-9.293-5.918-9.293-0.84375-3.5664 1.375-7.1445 4.9453-7.9844 3.5-0.82422 7.0078 1.293 7.9258 4.7109z" fill="#007335" fill-rule="evenodd"/>
 <path d="m580.14 492.75s-8.8125-64.652-11.75-144c-0.68359-18.441-1.6602-40.723-5.125-58.199-2.6055-13.133-6.8945-23.676-12.777-29.098-11.379-10.484-24.348-14.254-38.938-6.957-9.8672 4.9336-16.32 13.527-19.629 26.418-2.9023 11.297-3.3438 26.211-1.7305 45.031 3.0625 35.758 6.1562 89.168 8.8477 126.84 2.9141 40.797 0.85938 60.84 0 72.855-0.26172 3.6523 2.4961 6.8359 6.1523 7.0938 3.6562 0.26562 6.8398-2.4922 7.0977-6.1523 0.88281-12.32 2.9922-32.887 0-74.742-2.6953-37.73-5.793-91.223-8.8633-127.03-1.4531-16.961-1.2539-30.41 1.3594-40.59 2.207-8.582 6.1406-14.562 12.707-17.848 9.0273-4.5156 16.953-1.6406 23.992 4.8477 4.3711 4.0234 6.8164 12.16 8.75 21.91 3.3438 16.848 4.2227 38.332 4.8828 56.105 2.9648 80.066 11.863 145.3 11.863 145.3 0.49219 3.6328 3.8477 6.1797 7.4766 5.6836 3.6328-0.49219 6.1797-3.8438 5.6836-7.4766z" fill="#007335" fill-rule="evenodd"/>
</svg>
