<?xml version="1.0" encoding="UTF-8"?>
<svg width="1200pt" height="1200pt" version="1.1" viewBox="0 0 1200 1200" xmlns="http://www.w3.org/2000/svg">
 <path d="m367.64 299.46c-6.4922-1.3242-12.828 2.8594-14.156 9.3516-10.434 51.035-27.48 96.211-54.375 135.09-17.543 25.355-6.5547 60.609 21.258 73.055 7.7969 3.4922 15.383 6.8789 22.969 10.266-6.3398 26.953-12.406 55.02-10.594 84.422 2.0508 33.258 15.258 68.18 44.039 88.828 37.965 27.23 86.625 20.285 127.12 13.617 32.152-5.2812 65.648-10.719 97.336-24.305 31.867-13.664 61.961-36.445 77.484-69.445 2.8203-5.9922 0.25-13.137-5.7422-15.961-5.9922-2.8203-13.137-0.25-15.961 5.7422-12.195 25.922-37.262 45.617-65.227 57.609-28.145 12.066-59.66 17.41-91.781 22.688-39.801 6.5547-81.094 10.742-109.24-9.4453-20.992-15.062-32.359-42.934-34.078-70.805-1.7383-28.215 4.9727-57.387 12.07-87.164 1.3359-5.6094-1.5078-11.379-6.7734-13.734-10.305-4.5938-21.035-9.3945-31.828-14.227-14.715-6.5859-20.273-24.504-11.297-37.477v-0.023437c29.145-42.141 47.223-90.59 58.125-143.93 1.3242-6.4922-2.8594-12.828-9.3516-14.156z" fill="#004220"/>
 <path d="m511.9 72.023c-24.832 0.87891-50 3.0547-74.836 8.6484-43.469 9.6328-86.75 30.039-116.04 65.836-29.566 36.137-42.094 88.211-22.242 132.12 8.1758 18.574 23.523 36.801 46.289 41.016 0.0625 0.007813 0.125 0.015625 0.1875 0.023437 18.062 3.0508 34.234-3.4492 47.625-9.4688 0.023438-0.007812 0.046876-0.015624 0.070313-0.023437 12.711-5.8125 24.535-10.922 34.898-10.922 4.5273 0 9.7578 1.6445 13.336 4.125s5.2852 5.168 5.6016 8.1094c0.71484 6.5898 6.6289 11.352 13.219 10.641 6.5898-0.71094 11.352-6.6289 10.641-13.219-1.1836-10.988-7.8242-19.754-15.773-25.266s-17.402-8.3906-27.023-8.3906c-17.5 0-32.277 7.3477-44.859 13.102l0.070312-0.046874c-12.312 5.5352-23.961 9.293-33.75 7.6641-11.895-2.2695-22.652-13.527-28.594-27.047l-0.046875-0.14062c-15.266-33.695-5.5039-77.191 18.938-107.06 24.734-30.23 62.918-48.832 102.63-57.633h0.046874c22.742-5.125 46.438-7.2383 70.453-8.0859 3.1836-0.10938 6.1914-1.4805 8.3633-3.8125 2.1719-2.3281 3.3281-5.4258 3.2148-8.6094-0.24219-6.6211-5.8008-11.793-12.422-11.555z" fill="#004220"/>
 <path d="m667.22 24.891c-38.555-3.1367-78.715 1.7266-114.84 18.188h-0.046875c-17.473 8.0391-33.91 19.012-48.141 32.086l-0.09375 0.09375c-14.945 14.031-27.492 30.707-36.141 49.641-2.7461 6.0273-0.09375 13.137 5.9297 15.891 2.8945 1.3281 6.2031 1.4453 9.1875 0.33594 2.9844-1.1133 5.4062-3.3672 6.7266-6.2656 7.2031-15.77 17.789-29.934 30.68-42.047 12.355-11.344 26.777-20.961 41.883-27.914 31.605-14.387 67.719-18.961 102.89-16.102 46.582 3.8867 92.438 21.305 125.18 52.852l0.023437 0.023437c32.746 31.355 51.43 78.199 44.25 121.88-0.60938 3.6914 0.53516 7.4609 3.1016 10.184 2.5625 2.7266 6.2539 4.1016 9.9766 3.7148 17.457-1.8047 35.309 8.6719 50.859 23.039 14.484 13.383 24.219 32.75 28.078 52.805 8.6602 45.809-14.07 97.082-52.898 122.58l5.8359-1.7344c-6.3242 0.28516-11.344 5.4336-11.461 11.766 0 3.1836 1.2656 6.2344 3.5156 8.4844s5.3008 3.5156 8.4844 3.5156h0.21094c2.3398 0 4.6289-0.68359 6.5859-1.9688 47.355-31.098 73.965-90.852 63.328-147.12-0.007812-0.007812-0.015624-0.015625-0.023437-0.023438-4.7109-24.527-16.426-48.43-35.367-65.93-14.91-13.777-34.07-26.301-56.203-28.617 3.3477-48.43-16.84-96.516-51.656-129.87-37.578-36.207-88.656-55.211-139.83-59.484h-0.023438z" fill="#004220"/>
 <path d="m863.51 417.02c-3.1758 0.27344-6.1094 1.8008-8.1562 4.2422-4.25 5.082-3.5781 12.645 1.5 16.898 18.508 15.516 30.125 39.535 30.867 63.656v0.09375c0.92578 24.012-9.3398 48.812-26.742 65.461-17.902 17.152-44.348 27.059-70.945 39.375-42.141 19.566-72.035 55.82-80.883 95.555-8.8477 39.734 5.1328 83.332 47.555 111.61l-0.84375-0.60937 257.79 206.13c-210.83 121.45-413.5 163.94-608.67 108.47h-0.023437c-74.219-20.98-147.16-57.473-219.33-107.88l196.03-156.77c42.32-33.844 66.984-85.109 66.984-139.29v-16.289c0-3.1836-1.2656-6.2344-3.5156-8.4844s-5.3008-3.5156-8.4844-3.5156c-6.6289 0-12 5.3711-12 12v16.289c0 46.906-21.32 91.262-57.961 120.56l-209.39 167.41c-2.9297 2.3398-4.6016 5.9141-4.5117 9.6602 0.085937 3.75 1.9219 7.2422 4.957 9.4414 78.613 57.113 158.8 96.805 240.68 119.95 207.41 58.949 422.83 11.242 642.91-119.34 3.3945-2.0117 5.582-5.5625 5.8555-9.5 0.26953-3.9336-1.4102-7.7539-4.4961-10.211l-271.83-217.36c-0.27344-0.22266-0.55469-0.43359-0.84375-0.63281-35.348-23.562-44.445-55.023-37.453-86.438 6.9922-31.414 31.84-62.395 67.57-78.984 25.289-11.711 54.613-21.934 77.438-43.805 22.477-21.5 35.32-52.402 34.125-83.695-0.97266-31.18-15.508-61.168-39.445-81.234-2.4336-2.043-5.5781-3.0391-8.7422-2.7656z" fill="#004220"/>
 <path d="m791.3 356.18c-3.1758 0.21484-6.1367 1.6875-8.2305 4.0859-2.0938 2.4023-3.1445 5.5352-2.9258 8.7109 0.57812 8.457-1.1016 17.922-4.3828 26.438-6.5703 16.867-19.375 32-32.953 47.859-2.0703 2.418-3.0938 5.5586-2.8477 8.7344 0.24609 3.1719 1.7422 6.1172 4.1602 8.1875 2.418 2.0703 5.5586 3.0938 8.7344 2.8477 3.1719-0.24609 6.1172-1.7422 8.1875-4.1602 13.531-15.805 28.547-32.824 37.102-54.82 0.007813-0.007812 0.015625-0.015625 0.023437-0.023438 4.3984-11.406 6.793-24.043 5.9297-36.703-0.21484-3.1758-1.6875-6.1367-4.0859-8.2305-2.3984-2.0938-5.5352-3.1445-8.7109-2.9258z" fill="#004220"/>
 <path d="m742.66 309.61c-19.281 0.77734-36.973 11.418-46.945 27.68-3.4609 5.6484-1.6875 13.035 3.9609 16.5 5.6484 3.4609 13.035 1.6875 16.5-3.9609 5.625-9.1719 16.758-15.812 27.469-16.242h0.09375c3.7109-0.17578 7.2812 0.25781 10.594 1.3359 6.2969 2.0469 13.062-1.3945 15.117-7.6875 2.043-6.3047-1.4062-13.07-7.7109-15.117-6.2578-2.0352-12.715-2.8008-19.055-2.5078z" fill="#004220"/>
 <path d="m417.96 383.55c-6.5664 0.86328-11.195 6.8828-10.336 13.453 0.41406 3.1602 2.0664 6.0234 4.5938 7.9609 2.5312 1.9414 5.7266 2.793 8.8828 2.375 15.484-2.0352 32.164 2.5586 44.438 12.211 2.5 1.9688 5.6836 2.8594 8.8438 2.4844 3.1602-0.37891 6.0391-1.9961 8.0078-4.5 1.9688-2.5 2.8594-5.6836 2.4844-8.8438-0.37891-3.1602-1.9961-6.0391-4.5-8.0078-17.535-13.793-40.293-20.043-62.414-17.133z" fill="#004220"/>
 <path d="m402.8 572.16c-17.266 8.5391-37.266 11.637-56.719 9.3281-3.1641-0.375-6.3477 0.52344-8.8516 2.4961-2.5 1.9727-4.1133 4.8633-4.4844 8.0273-0.76953 6.5742 3.9258 12.531 10.5 13.312 23.844 2.8281 48.438-0.89062 70.195-11.648 2.8516-1.4102 5.0312-3.8984 6.0508-6.9141 1.0195-3.0156 0.79688-6.3125-0.61328-9.1641s-3.8984-5.0312-6.9141-6.0508c-3.0156-1.0195-6.3125-0.79688-9.1641 0.61328z" fill="#004220"/>
 <path d="m746.34 783.4c-86.668 35.801-165.66 89.719-229.9 158.11h-0.023437c-52.875 56.359-95.426 122.08-125.77 193.24-2.5859 6.0898 0.24219 13.125 6.3281 15.727 2.9258 1.25 6.2305 1.2852 9.1875 0.097657 2.9531-1.1875 5.3125-3.4961 6.5625-6.4258 29.254-68.613 70.293-131.95 121.2-186.21 61.828-65.816 138.01-117.82 221.58-152.34 2.9453-1.2148 5.2852-3.5469 6.5078-6.4883 1.2227-2.9414 1.2266-6.25 0.007813-9.1914-1.2148-2.9453-3.5469-5.2852-6.4883-6.5078s-6.25-1.2266-9.1914-0.007812z" fill="#004220"/>
 <path d="m496.71 247.12c-2.3438 2.1562-3.7383 5.1562-3.8711 8.3398-0.12891 3.1836 1.0078 6.2852 3.168 8.6289 21.43 23.27 50.551 38.82 81.75 43.57 23.656 3.6797 48.016 1.1797 70.383-7.2422 6.1992-2.332 9.332-9.2461 7.0078-15.445-2.332-6.1992-9.2461-9.332-15.445-7.0078-18.434 6.9375-38.723 9.0156-58.266 5.9766h-0.046875c-25.664-3.8984-50.055-16.918-67.734-36.117-4.4883-4.8711-12.07-5.1836-16.945-0.70312z" fill="#004220"/>
 <path d="m616.1 240.23c-3.0469-0.91797-6.3359-0.58984-9.1406 0.91406-2.8086 1.5-4.9023 4.0547-5.8242 7.1016-0.92578 3.0469-0.59766 6.3359 0.90234 9.1406 18.672 34.855 52.754 60.434 91.43 68.648 38.68 8.2188 80.219-1.3164 111.45-25.57 2.5156-1.9531 4.1523-4.8281 4.5469-7.9883 0.39844-3.1602-0.48047-6.3516-2.4375-8.8633-1.9531-2.5156-4.8281-4.1523-7.9883-4.5469-3.1602-0.39844-6.3516 0.48047-8.8633 2.4375-25.414 19.738-60.238 27.734-91.711 21.047-31.477-6.6875-60.066-28.148-75.258-56.508-1.5039-2.8008-4.0586-4.8906-7.1016-5.8125z" fill="#004220"/>
 <path d="m754.17 300c-6.5547 0.94141-11.105 7.0156-10.172 13.57l0.35156 2.5312c0.007813 0.039063 0.015626 0.078126 0.023438 0.11719 0.46484 3.0195 1.0312 6.4062 2.0156 10.055 2.7578 12.316 8.0039 24.312 16.547 34.312 6.7031 7.8672 14.926 13.859 23.812 18.305 7.4336 3.7188 15.305 6.418 23.297 8.1797 17.031 3.8516 33.812 3.8867 49.453 4.125 3.1836 0.050782 6.2539-1.1641 8.543-3.3828 2.2852-2.2148 3.5977-5.2461 3.6445-8.4297 0.050781-3.1875-1.168-6.2617-3.3906-8.5469-2.2188-2.2891-5.2578-3.5977-8.4453-3.6406-15.781-0.24219-30.883-0.44141-44.555-3.5391-0.023437-0.007812-0.046875-0.015625-0.070313-0.023438-6.168-1.3594-12.215-3.4492-17.742-6.2109-6.4727-3.2344-11.926-7.3047-16.266-12.398-0.007812-0.007813-0.015625-0.015626-0.023438-0.023438-5.5703-6.5156-9.3906-14.875-11.438-24.094-0.050781-0.21094-0.10547-0.42188-0.16406-0.63281-0.58984-2.1094-1.0117-4.5586-1.4766-7.5703l-0.023438-0.11719-0.32812-2.4141c-0.45312-3.1523-2.1406-5.9961-4.6875-7.9023-2.5508-1.9102-5.7539-2.7266-8.9062-2.2695z" fill="#004220"/>
</svg>
