<?xml version="1.0" encoding="UTF-8"?>
<svg width="1200pt" height="1200pt" version="1.1" viewBox="0 0 1200 1200" xmlns="http://www.w3.org/2000/svg">
 <path d="m599.4 373.1c-78.598 0-143.16 61.961-143.16 138.6-0.050782 4.0391 1.5195 7.9336 4.3594 10.809 2.8398 2.875 6.7148 4.4922 10.754 4.4922 4.043 0 7.9141-1.6172 10.754-4.4922s4.4102-6.7695 4.3594-10.809c0-59.691 50.094-108.37 112.93-108.37 31.352 0 62.879 12.773 84.504 32.559 21.625 19.785 33.23 45.297 28.555 73.332l0.003907-0.003906v0.015625c-10.094 60.973-37.52 71.156-68.961 90.457-15.723 9.6523-32.734 21.305-44.305 41.508-11.57 20.203-16.902 47.539-13.883 86.668 0.26172 4.0312 2.125 7.793 5.1797 10.441 3.0508 2.6484 7.0391 3.9648 11.066 3.6523 4.0312-0.3125 7.7695-2.2227 10.379-5.3125 2.6094-3.0859 3.875-7.0859 3.5117-11.113-2.7344-35.387 2.2109-55.762 9.9766-69.32 7.7617-13.559 19.141-21.715 33.891-30.766 29.492-18.105 71.312-40.906 82.965-111.27v-0.015626c6.5312-39.219-10.488-75.441-37.969-100.58-27.484-25.145-65.547-40.484-104.91-40.484z" fill="#004220" fill-rule="evenodd"/>
 <path d="m600 768.94c-16.465 0-30.156 13.797-30.156 30.23 0 16.426 13.602 30.227 30.156 30.227s30.16-13.707 30.16-30.227-13.695-30.23-30.16-30.23z" fill="#004220" fill-rule="evenodd"/>
 <path d="m600 266.09c-183.5 0-332.52 149.74-332.52 333.95 0 184.21 149.02 333.87 332.52 333.87 183.49 0 332.52-149.66 332.52-333.87 0-184.21-149.02-333.95-332.52-333.95zm0 30.227c167.08 0 302.29 135.77 302.29 303.72 0 167.95-135.2 303.64-302.29 303.64s-302.29-135.7-302.29-303.64c0.003906-167.95 135.21-303.72 302.29-303.72z" fill="#004220" fill-rule="evenodd"/>
</svg>
