<svg width="862" height="865" viewBox="0 0 862 865" fill="none" xmlns="http://www.w3.org/2000/svg">
<g clip-path="url(#clip0_85_2)">
<path fill-rule="evenodd" clip-rule="evenodd" d="M430.724 138.854C329.005 138.854 245.451 219.042 245.451 318.225C245.385 323.453 247.417 328.493 251.092 332.214C254.768 335.935 259.783 338.028 265.01 338.028C270.242 338.028 275.252 335.935 278.927 332.214C282.603 328.493 284.635 323.453 284.569 318.225C284.569 240.975 349.399 177.976 430.719 177.976C471.294 177.976 512.095 194.507 540.082 220.113C568.068 245.718 583.087 278.735 577.037 315.017L577.042 315.012V315.032C563.978 393.941 528.485 407.12 487.795 432.099C467.446 444.59 445.431 459.671 430.457 485.817C415.483 511.963 408.583 547.34 412.49 597.98C412.828 603.197 415.24 608.065 419.193 611.492C423.141 614.92 428.303 616.623 433.514 616.219C438.731 615.814 443.569 613.342 446.946 609.344C450.323 605.35 451.961 600.173 451.491 594.962C447.952 549.165 454.352 522.796 464.403 505.25C474.447 487.702 489.174 477.147 508.263 465.434C546.431 442.003 600.553 412.494 615.634 321.432V321.411C624.086 270.655 602.061 223.778 566.496 191.244C530.927 158.702 481.667 138.851 430.724 138.851L430.724 138.854Z" fill="#004220"/>
<path fill-rule="evenodd" clip-rule="evenodd" d="M431.5 651.137C410.192 651.137 392.473 668.992 392.473 690.259C392.473 711.517 410.076 729.378 431.5 729.378C452.924 729.378 470.532 711.639 470.532 690.259C470.532 668.88 452.808 651.137 431.5 651.137Z" fill="#004220"/>
<path fill-rule="evenodd" clip-rule="evenodd" d="M431.5 0.364746C194.02 0.364746 1.1637 194.153 1.1637 432.552C1.1637 670.95 194.02 864.635 431.5 864.635C668.967 864.635 861.836 670.95 861.836 432.552C861.836 194.153 668.98 0.364746 431.5 0.364746ZM431.5 39.4835C647.729 39.4835 822.714 215.193 822.714 432.548C822.714 649.903 647.742 825.509 431.5 825.509C215.258 825.509 40.2863 649.89 40.2863 432.548C40.2914 215.193 215.271 39.4835 431.5 39.4835Z" fill="#004220"/>
</g>
<defs>
<clipPath id="clip0_85_2">
<rect width="862" height="865" fill="white"/>
</clipPath>
</defs>
</svg>
