<?xml version="1.0" encoding="UTF-8"?>
<svg width="1200pt" height="1200pt" version="1.1" viewBox="0 0 1200 1200" xmlns="http://www.w3.org/2000/svg">
 <path d="m600 92.016c-134.72 0-263.95 53.484-359.21 148.78-95.297 95.25-148.78 224.48-148.78 359.21s53.484 263.95 148.78 359.21c95.25 95.297 224.48 148.78 359.21 148.78s263.95-53.484 359.21-148.78c95.297-95.25 148.78-224.48 148.78-359.21-0.14062-134.68-53.719-263.81-148.92-359.06-95.25-95.203-224.39-148.78-359.06-148.92zm0 920.02v-0.046875c-109.27 0-214.08-43.406-291.32-120.66-77.242-77.254-120.66-182.06-120.66-291.32s43.406-214.08 120.66-291.32c77.254-77.242 182.06-120.66 291.32-120.66s214.08 43.406 291.32 120.66c77.242 77.254 120.66 182.06 120.66 291.32-0.09375 109.22-43.547 213.94-120.79 291.19-77.246 77.258-181.97 120.71-291.19 120.79z"/>
 <path d="m648.98 845.48c0 65.344-97.969 65.344-97.969 0s97.969-65.344 97.969 0z"/>
 <path d="m600 305.53c-88.875 0.09375-160.92 72.141-161.02 161.02 0 26.953 21.891 48.844 48.891 48.844 26.953 0 48.844-21.891 48.844-48.844 0-25.594 15.422-48.703 39.047-58.5 23.672-9.7969 50.906-4.3594 69 13.734s23.484 45.328 13.688 68.953c-9.7969 23.672-32.859 39.094-58.453 39.094-12.938 0-25.406 5.1094-34.547 14.297-9.1406 9.1406-14.297 21.562-14.297 34.547v97.312c0 26.953 21.844 48.844 48.844 48.844s48.844-21.891 48.844-48.844v-56.859c75.609-23.906 122.44-99.422 110.25-177.79-12.188-78.328-79.781-136.03-159.1-135.79z"/>
</svg>
