<?xml version="1.0" encoding="UTF-8"?>
<svg width="1200pt" height="1200pt" version="1.1" viewBox="0 0 1200 1200" xmlns="http://www.w3.org/2000/svg">
 <path d="m324.71 585c-34.453 35.156-12.375 49.453-0.375 61.781 27.469 28.078 56.297 54.844 85.219 81.609l11.859 10.922c8.1562 7.4531 17.531 12.844 27.234 16.453 19.312 6.9375 39.609 7.0781 58.688 0.70312 9.4688-3.2344 18.844-8.2969 27-15.141l5.8594-5.3906 2.5312-2.625 5.1562-5.2969 20.625-21 174.14-174.47c9.4688-9.6094 32.062-15.375 1.4531-47.297-33.141-34.453-38.531-10.078-48-1.4531-59.297 54.375-114.23 113.06-171.37 169.55l-21.609 21-10.922 10.453c-2.3906 2.2969-2.0625 1.7812-2.8594 2.3906-0.60938 0.375-1.3125 0.70312-2.0625 0.9375-3 1.2188-7.3125 1.0781-10.312-0.375-1.5469-0.70312-2.625-1.5469-3.375-2.5312-0.23438-0.23438-0.375-0.46875-0.46875-0.70312l-0.23438-0.375-1.0781-1.3125-4.9219-5.7656c-26.297-30.609-51-62.531-73.547-96.703-10.547-15.938-26.391-38.391-68.531 4.4531z" fill="#ffb258"/>
 <path d="m159.24 1002.2c12.141 4.7812 24.703 8.7656 37.547 10.781 6.4688 1.0781 12.938 2.0625 19.453 2.1562l9.7031 0.46875h94.078c3.2344 0 6.6094 0.9375 9.4688 2.5312 1.4531 0.70312 2.8594 1.6875 4.0781 2.7656 0.9375 0.84375 0.46875 0.375 2.3906 2.3906l5.0625 5.2969 20.297 21.234 40.688 42.469 20.297 21.234c8.7656 9.2344 19.688 18.234 31.078 25.312 46.547 29.062 107.53 30.469 155.53 3.4688 11.859-6.6094 22.781-14.859 32.531-24.234l21.234-21.141 72.75-72.75 3.375-3.2344c0.60938-0.60938 1.3125-1.0781 1.9219-1.5469 6.7031-4.0781 6.6094-4.0781 31.781-3.8438h66.094l9.4688-0.375c6.4688-0.14062 12.938-0.9375 19.453-2.0625 12.938-1.9219 25.453-5.8594 37.547-10.688 48.141-20.156 86.391-62.625 99.703-113.3 2.3906-8.2969 4.0781-17.156 5.5312-26.531 1.0781-9 1.6875-20.062 1.7812-26.156 0.375-14.531 0.46875-28.922-0.70312-42-2.5312-26.062-10.688-45.938-32.766-47.531-23.859-1.7812-32.391 17.391-35.156 43.078-1.3125 12.844-1.2188 27.375-0.84375 41.625l0.375 10.688v8.7656c0 5.5312-0.9375 10.922-1.9219 15.703-7.2188 30-28.312 56.531-56.156 69.609-13.781 6.7031-28.922 10.219-44.297 10.312h-57.141l-28.688-0.23438c-11.859-0.375-26.625 2.1562-38.625 7.6875-6.2344 2.7656-12.141 6.1406-17.531 10.219-5.3906 3.8438-10.688 9.375-13.547 12.141l-91.359 91.359c-2.625 2.5312-5.3906 5.0625-8.2969 7.2188-22.781 18.141-55.922 22.453-82.922 11.391-6.7031-2.625-13.219-6.2344-19.078-10.688-6-4.3125-10.453-9.2344-17.766-16.781l-79.688-82.781c-7.9219-8.625-19.922-17.625-32.062-22.453-6.2344-2.5312-12.609-4.4531-19.312-5.625-3.375-0.60938-6.6094-0.9375-9.9375-1.2188-3.6094-0.23438-6.7031-0.23438-8.7656-0.23438h-86.156c-9.375 0-15.703-0.60938-23.625-1.9219-30-5.625-56.859-25.922-71.062-52.922-7.0781-13.547-11.062-28.453-11.531-43.688-0.23438-3.375-0.23438-8.2969-0.14062-13.219v-14.391l0.375-28.688c0.70312-76.547 1.6875-153.24 3.2344-229.78l2.625-114.84 1.6875-57.469 0.9375-28.688c0.23438-9.4688 0.60938-20.062 1.4531-25.688 3.1406-27.375 20.156-51.469 42.469-65.062 11.297-6.7031 23.766-10.547 36.375-11.625 3.1406-0.375 6.2344-0.46875 9.4688-0.23437 2.5312 0 7.4531 0.23437 12.375 0.46875l28.688 1.4531c71.391 3.8438 174.94 8.3906 172.55-51.609-1.9219-49.219-99.703-43.688-165.71-43.922h-42.141c-4.9219 0-12.469 0.46875-18.609 0.84375-25.688 2.1562-51 10.547-73.078 23.766-44.531 26.062-76.781 72-84.938 123.24-0.9375 6.375-2.0625 12.703-2.1562 19.219l-0.375 9.6094v7.4531l0.70312 84.234 1.0781 112.45 2.2969 224.76 0.46875 56.156v14.062c0 4.3125 0.60938 12 0.9375 17.766 1.0781 12.469 3.7031 24.703 7.3125 36.703 15.234 47.859 51.844 87.703 97.922 107.06z" fill="#ffb258"/>
 <path d="m619.55 53.859c-0.9375 28.078 5.8594 56.156 5.8594 84.234 1.0781 0 0.46875 0 0 0 0 29.391-0.23438 58.688 0.23438 88.078 0 4.7812-11.766 12 32.391 12.375 47.766 0.375 34.312-7.2188 34.922-11.766 6.9375-57.375-10.688-114.84 22.078-172.08 3.8438-6.7031 8.3906-16.312-51.609-16.219-49.219 0.14062-43.688 9.375-43.922 15.469z" fill="#ffb258"/>
 <path d="m871.31 314.53c33.469 33.938 29.625 18.938 33.469 15.938 47.766-38.062 78.234-93.469 144.37-113.16 7.6875-2.2969 18.234-6.2344-24.375-48.609-34.922-34.688-37.922-23.859-42.609-19.453-21.609 20.297-37.781 46.078-58.781 67.078-0.375-0.375-0.70312-0.70312 0 0-21.938 21.938-44.062 43.688-65.625 66-3.6094 3.6094-17.297 0.60938 13.688 32.156z" fill="#ffb258"/>
 <path d="m1135.5 483.47c-29.062-0.9375-57.938 5.8594-87 5.8594s-60.609-0.23438-90.938 0.23438c-5.0625 0-12.375-11.766-12.703 32.391-0.375 47.766 7.4531 34.312 12.141 34.922 59.297 6.9375 118.69-10.688 177.84 22.078 6.9375 3.8438 16.922 8.3906 16.688-51.609-0.23438-49.219-9.6094-43.688-16.078-43.922z" fill="#ffb258"/>
</svg>
