<?xml version="1.0" encoding="UTF-8"?>
<svg width="1200pt" height="1200pt" version="1.1" viewBox="0 0 1200 1200" xmlns="http://www.w3.org/2000/svg">
 <path d="m1200 600c0 214.36-114.36 412.44-300 519.62-185.64 107.18-414.36 107.18-600 0-185.64-107.18-300-305.26-300-519.62s114.36-412.44 300-519.62c185.64-107.18 414.36-107.18 600 0 185.64 107.18 300 305.26 300 519.62z" fill="#004220"/>
 <path d="m599.95 257.58c188.98 0 342.48 153.38 342.48 342.36 0 188.98-153.5 342.48-342.48 342.48s-342.39-153.5-342.39-342.48c0-188.98 153.41-342.36 342.39-342.36zm0 23.617c-176.22 0-318.77 142.53-318.77 318.75 0 176.22 142.55 318.86 318.77 318.86 176.22 0 318.84-142.64 318.84-318.86s-142.62-318.75-318.84-318.75zm-67.988 155.41c3.1367-0.16016 6.207 0.9375 8.5312 3.0469l182.36 165.36c2.4727 2.2383 3.8828 5.4141 3.8828 8.75 0 3.3359-1.4102 6.5156-3.8828 8.7539l-182.36 165.27c-2.3164 2.1211-5.3828 3.2305-8.5234 3.082-3.1367-0.14844-6.0859-1.5391-8.1953-3.8672-2.1133-2.3281-3.2109-5.3984-3.0508-8.5352 0.16016-3.1406 1.5664-6.0859 3.9023-8.1836l172.7-156.55-172.7-156.55c-4.8242-4.3672-5.2031-11.816-0.85156-16.652 2.0977-2.3438 5.043-3.7578 8.1875-3.9219z" fill="#fff" fill-rule="evenodd"/>
</svg>
