<svg width="914" height="914" viewBox="0 0 914 914" fill="none" xmlns="http://www.w3.org/2000/svg">
<g clip-path="url(#clip0_1_4)">
<path fill-rule="evenodd" clip-rule="evenodd" d="M456.933 0.439972C708.907 0.439972 913.573 204.947 913.573 456.92C913.573 708.893 708.907 913.56 456.933 913.56C204.96 913.56 0.41333 708.893 0.41333 456.92C0.41333 204.947 204.96 0.439972 456.933 0.439972ZM456.933 31.9293C221.973 31.9293 31.9067 221.969 31.9067 456.929C31.9067 691.889 221.973 882.076 456.933 882.076C691.893 882.076 882.053 691.889 882.053 456.929C882.053 221.969 691.893 31.9293 456.933 31.9293ZM366.283 239.143C370.465 238.929 374.559 240.393 377.658 243.205L620.804 463.685C624.101 466.67 625.981 470.904 625.981 475.352C625.981 479.8 624.101 484.039 620.804 487.024L377.658 707.384C374.569 710.212 370.481 711.691 366.293 711.493C362.111 711.295 358.179 709.441 355.366 706.337C352.548 703.233 351.085 699.139 351.298 694.957C351.512 690.769 353.387 686.842 356.501 684.045L586.768 475.312L356.501 266.578C350.069 260.755 349.564 250.824 355.366 244.376C358.163 241.251 362.09 239.365 366.283 239.147L366.283 239.143Z" fill="#004220"/>
</g>
<defs>
<clipPath id="clip0_1_4">
<rect width="914" height="914" fill="white"/>
</clipPath>
</defs>
</svg>
