<?xml version="1.0" encoding="UTF-8"?>
<svg width="1200pt" height="1200pt" version="1.1" viewBox="0 0 1200 1200" xmlns="http://www.w3.org/2000/svg">
 <path d="m600 719.76h438c15.234 0 27.562 12.328 27.562 27.562 0 8.625-3.9375 16.266-10.078 21.328l-436.6 411.79c-10.641 10.031-27.188 9.8906-37.688 0l-438-413.11c-11.062-10.406-11.578-27.797-1.1719-38.859 5.3906-5.7656 12.703-8.6719 20.016-8.6719l438-0.046875zm438-239.53-875.95-0.046875c-7.3125-0.046875-14.625-2.9062-20.016-8.6719-10.406-11.062-9.8438-28.453 1.1719-38.859l438-413.11c10.5-9.8906 27.047-10.031 37.688 0l436.6 411.79c6.1406 5.0625 10.078 12.75 10.078 21.328 0 15.234-12.328 27.562-27.562 27.562z" fill-rule="evenodd"/>
</svg>
