<?xml version="1.0" encoding="UTF-8"?>
<svg width="1200pt" height="1200pt" version="1.1" viewBox="0 0 1200 1200" xmlns="http://www.w3.org/2000/svg">
 <path d="m199.8 392.28 112.8-112.8v753.72c0 25.801 20.879 46.68 46.68 46.68s46.68-20.879 46.68-46.68v-753.72l112.8 112.8c9.1211 9.1211 21.121 13.68 33 13.68 11.879 0 23.879-4.5586 33-13.68 18.238-18.238 18.238-47.879 0-66.121l-192.36-192.36c-4.3203-4.3203-9.6016-7.8008-15.359-10.199-0.23828-0.12109-0.48047-0.12109-0.71875-0.23828-5.2812-2.1641-11.039-3.3633-17.039-3.3633s-11.762 1.1992-17.039 3.3594c-0.23828 0.12109-0.48047 0.12109-0.71875 0.23828-5.7617 2.3984-11.039 5.8789-15.359 10.199l-192.48 192.48c-18.238 18.238-18.238 47.879 0 66.121 18.242 18.117 47.879 18.117 66.121-0.12109z" fill="#004220"/>
 <path d="m1000.2 807.72-112.8 112.8v-753.84c0-25.801-20.879-46.68-46.68-46.68s-46.68 20.879-46.68 46.68v753.72l-112.8-112.8c-18.238-18.238-47.762-18.238-66.121 0-18.238 18.238-18.238 47.879 0 66.121l192.48 192.48c4.3203 4.3203 9.6016 7.8008 15.359 10.199 0.23828 0.12109 0.48047 0.12109 0.71875 0.23828 5.2812 2.1641 11.039 3.3633 17.039 3.3633s11.762-1.1992 17.039-3.3594c0.23828-0.12109 0.48047-0.12109 0.71875-0.23828 5.7617-2.3984 11.039-5.8789 15.359-10.199l192.48-192.48c18.238-18.238 18.238-47.879 0-66.121-18.238-18.121-47.875-18.121-66.117 0.11719z" fill="#004220"/>
</svg>
