<?xml version="1.0" encoding="UTF-8"?>
<svg width="1200pt" height="1200pt" version="1.1" viewBox="0 0 1200 1200" xmlns="http://www.w3.org/2000/svg">
 <path d="m1092.9 728.48c33.516-33.516 84.422 17.391 50.906 50.906l-249.42 249.42c-13.219 13.031-35.859 13.641-50.297-0.60938l-248.76-248.81c-33.516-33.516 17.391-84.422 50.906-50.906l187.36 187.36v-718.55c0-47.391 72-47.391 72 0v718.55zm-776.86-564.19-10.5 6.9844-249.42 249.37c-33.516 33.516 17.391 84.422 50.906 50.906l187.36-187.36v718.55c0 47.391 72 47.391 72 0l-0.046875-718.55 187.36 187.36c33.516 33.516 84.422-17.391 50.906-50.906l-248.76-248.81c-10.453-10.266-25.922-13.594-39.797-7.5469z" fill="#007335" fill-rule="evenodd"/>
</svg>
