<?xml version="1.0" encoding="UTF-8"?>
<svg width="1200pt" height="1200pt" version="1.1" viewBox="0 0 1200 1200" xmlns="http://www.w3.org/2000/svg">
 <path d="m490.44 132.24c-16.441-16.441-42.961-16.441-59.398 0l-136.56 136.8c-16.441 16.32-16.441 42.961 0 59.398 16.441 16.441 42.961 16.441 59.398 0l65.039-65.039v496.44c0 23.16 18.719 42 42 42 23.16 0 42-18.84 42-42l0.003906-496.56 65.039 65.039c8.1602 8.1602 18.961 12.238 29.641 12.238 10.68 0 21.48-4.0781 29.641-12.238 16.441-16.441 16.441-42.961 0-59.398z"/>
 <path d="m739.2 398.28c-23.16 0-42 18.84-42 42v496.44l-65.039-65.039c-16.441-16.441-42.961-16.441-59.398 0-16.441 16.441-16.441 42.961 0 59.398l136.68 136.68c8.2773 8.1602 18.957 12.238 29.758 12.238 10.68 0 21.48-4.0781 29.641-12.238l136.68-136.68c16.441-16.441 16.441-42.961 0-59.398-16.441-16.441-42.961-16.441-59.398 0l-65.039 65.039-0.003906-496.44c0.12109-23.16-18.719-42-41.879-42z"/>
</svg>
