<?xml version="1.0" encoding="UTF-8"?>
<svg width="1200pt" height="1200pt" version="1.1" viewBox="0 0 1200 1200" xmlns="http://www.w3.org/2000/svg">
 <path d="m809.86 452.16c11.859-71.531 27.141-132.24 39.234-180.94 18.938-75.844 30.469-121.69 12.141-138-14.766-13.219-29.156-17.391-43.688-12.469-52.219 18.141-76.688 155.06-77.766 160.78-8.3906 47.625-42.703 188.39-60.469 236.39-12.844-39.844-7.5469-118.92-2.5312-195.61 7.2188-109.78 14.062-213.37-25.922-229.31-7.0781-2.8594-23.062-4.9219-38.391 5.2969-24.609 16.453-37.453 56.297-38.297 118.55-0.46875 36 0.46875 75.141 1.3125 112.78 1.9219 79.078 3.8438 160.78-9.6094 177.84-2.5312 3.2344-4.2188 2.8594-4.6875 2.7656-18.375-3.9375-45.609-114.7-67.453-203.63-21.375-86.391-43.219-175.69-63.703-208.55-11.625-18.609-30.375-25.219-48-17.531-32.391 14.625-51.469 75.375-21.141 178.08 61.219 207 84.703 355.55 68.062 429.71-8.3906 37.219-31.078 56.531-51.234 73.547-12.938 10.922-25.219 21.234-32.531 35.156-19.219 35.859 4.3125 137.39 23.625 210.71 1.9219 7.0781 3.2344 12 3.6094 13.922 9.6094 48.844-7.9219 129.84-8.0625 130.69-0.23438 1.2188 0 2.3906 0.84375 3.4688 0.70312 0.9375 1.9219 1.5469 3.2344 1.5469h324.47c2.1562 0 3.9375-1.5469 4.2188-3.7031 5.1562-55.219 13.688-64.547 39.141-92.391 5.2969-5.8594 11.297-12.469 18.141-20.297 26.766-31.078 79.922-230.39 82.078-244.45 12.469-81-15.375-112.08-37.688-137.06-9.2344-10.219-17.156-19.078-21.141-30-7.9219-22.219 1.7812-57.141 12.938-97.688 6.7031-24.234 14.297-51.609 18.938-79.688zm-39.703 180.14c4.4531 12.469 13.312 22.312 22.547 32.766 21.234 23.625 47.531 53.156 35.625 130.31-2.2969 15-56.062 212.16-80.062 240.24-6.7031 7.7812-12.703 14.297-18 20.062-25.547 27.938-35.391 38.859-40.922 93.469h-315.56c3.8438-18.844 15.609-85.078 7.0781-129-0.46875-2.0625-1.7812-7.2188-3.6094-14.531-11.062-41.391-44.297-167.63-24.469-204.71 6.7031-12.469 18.375-22.219 30.609-32.625 15-12.703 31.219-26.859 42.703-48.234 0.23438 0.60938-0.375 1.4531 0.23438 1.9219 1.9219 1.4531 4.5469 0.9375 5.8594-0.70312 54-71.859 65.766-75.375 87.234-81.844 13.078-3.8438 29.297-8.625 58.547-27.938 63.703-41.766 111-57.609 132.37-44.531 12.609 7.5469 17.766 25.312 15.234 52.781-2.8594 31.219-36 92.766-112.45 125.06-6.9375 2.8594-13.312 5.5312-19.078 7.9219-9.8438 4.0781-17.859 7.4531-25.219 10.922-39.469-23.625-46.453-32.391-76.922-76.922-1.4531-1.9219-3.9375-2.3906-5.8594-1.0781-1.9219 1.3125-2.3906 3.8438-1.0781 5.7656 29.531 42.938 38.625 54.234 75.141 76.453-5.7656 3-10.453 6.375-14.766 9.8438-0.14063 0.14062-0.375-0.14062-0.46875 0-0.46875 0.46875-0.60938 0.9375-1.0781 1.4531-14.859 13.078-23.156 32.156-33 73.312-0.46875 2.1562 0.84375 4.4531 3.1406 5.0625h0.9375c1.9219 0 3.6094-1.3125 4.0781-3.2344 2.7656-11.625 5.3906-20.859 8.0625-29.297 0.60938 4.6875 1.7812 9.1406 3.9375 13.219 4.9219 9 17.062 21.938 46.922 21.938 7.5469 0 16.219-0.84375 26.062-2.7656 55.688-10.688 101.62-58.453 170.53-135.71 1.5469-1.7812 1.3125-4.4531-0.375-5.8594-1.9219-1.5469-4.4531-1.4531-5.8594 0.375-67.781 76.078-112.69 123-165.71 133.22-32.766 6.375-55.453 0.9375-64.078-15-7.5469-13.922-2.3906-34.078 12-49.781 10.453-8.7656 24.703-14.859 47.062-24 5.8594-2.3906 12.234-5.0625 19.219-7.9219 79.781-33.609 114.47-98.766 117.61-131.86 2.7656-30.938-3.6094-51.375-19.219-60.703-25.078-15-72.703-0.14062-141.24 44.766-28.219 18.609-43.781 23.156-56.297 26.859-22.453 6.7031-35.391 11.062-86.391 78 2.5312-6 5.0625-11.859 6.7031-19.078 16.922-75.469-6.6094-225.61-68.156-433.92-33.141-111.94-5.1562-158.39 16.547-168.24 13.781-6 28.219-0.46875 37.453 14.297 19.781 31.781 41.625 120.37 62.625 206.16 31.312 127.31 51.938 204.94 73.781 209.76 3.4688 0.84375 8.1562 0.23438 12.938-5.7656 15.375-19.312 13.547-95.297 11.531-183.14-0.9375-37.688-1.9219-76.688-1.4531-112.55 0.9375-73.922 19.312-101.62 34.547-111.7 15.375-10.219 30.141-4.6875 30.703-4.4531 34.312 13.688 27.375 119.16 20.625 221.06-5.7656 88.219-11.297 171.47 7.2188 209.16 0.70312 1.4531 2.1562 2.2969 3.7031 2.2969s3-0.9375 3.7031-2.3906c16.547-36.234 55.453-194.76 64.781-247.78 6.7031-38.297 32.766-140.63 72.375-154.45 11.062-3.8438 22.781-0.375 35.297 10.781 14.531 13.078 2.2969 62.062-14.625 129.84-12.141 48.938-27.375 109.78-39.375 181.69-4.6875 27.609-12.141 54.703-18.703 78.703-11.625 42-21.609 78.141-12.703 102.7z" fill="#007335"/>
</svg>
