<?xml version="1.0" encoding="UTF-8"?>
<svg width="1200pt" height="1200pt" version="1.1" viewBox="0 0 1200 1200" xmlns="http://www.w3.org/2000/svg">
 <path d="m494.29 125.9c-2.9531 0-6 0.375-9.1406 1.2188-33.75 9.0469-22.828 57.141-14.766 87.281 8.9062 33.188 17.953 69.375 29.297 115.31 14.812 59.953 31.031 111.7 34.078 137.02 2.2969 6.75 10.969 32.156 20.859 63.656 3.7031 11.719 7.3594 23.719 10.641 35.062 2.9062-8.2969 9.6562-14.297 15.938-15.984 19.922-5.3438 38.625-20.812 53.062-35.906 7.2188-7.5469 13.406-15 18.188-20.953 4.7812-6 7.9688-10.312 10.078-12.422 6.0469-6.0469 12-9.2812 18.234-10.266 1.5469-0.23438 3.1406-0.375 4.7344-0.375 4.7344-0.046875 9.6562 0.9375 14.953 2.3906 2.3438 0.60938 6.2344 2.3906 11.531 4.8281s11.672 5.4844 17.906 8.5312c6.0469 2.9531 7.2656 3.5625 11.672 5.7656-2.4844-8.4844-11.109-37.641-14.297-49.453 0 0 3.1875-43.781 1.2188-91.641-1.9219-47.859-3.7969-85.359-0.89062-125.58 2.2969-31.547 5.2969-83.578-33.328-86.344-38.625-2.8125-43.312 52.688-45.234 78.844-3.375 46.828-9.2812 79.922-15.141 123.94-5.8594 43.969-1.7812 105.42-9.1875 107.44-4.5 1.2188-20.766-63.984-41.344-140.53-13.219-49.266-27.281-88.125-36.141-121.22-6.1406-22.828-24.422-60.328-52.922-60.422zm18.562 334.4c-7.9219 0.51562-30.328 9.0469-35.25 12.516-10.5 7.5-13.594 23.062-16.641 36.281 0 0-0.1875 0.1875-0.23438 0.23438 3.6562 4.7344 8.625 12.188 13.688 23.062 9.1875 19.875 18.328 50.719 18.562 94.875 23.953 13.781 43.547 13.172 57.375 8.2031 7.0312-2.5312 12.562-6.1875 16.219-9.6562s5.25-7.1719 5.25-7.6875c0-5.1562-2.7188-18.141-6.9375-33.797s-9.8438-34.359-15.516-52.266c-10.922-34.641-21.375-65.203-22.125-67.312-4.5469-1.9688-10.078-4.125-12.984-4.4531-0.375-0.046876-0.84375-0.046876-1.3594 0zm172.69 14.719c-1.3125 0-2.625 0.09375-3.8906 0.32812-5.0156 0.79688-9.75 3.2344-15.234 8.7188-1.2656 1.2656-4.875 5.9531-9.7031 12-4.8281 6.0469-11.109 13.594-18.469 21.328-14.766 15.469-33.984 31.641-55.641 37.453-4.2656 1.125-11.344 7.4531-12.891 15.141-1.5938 7.6875 1.2656 17.156 17.25 26.438 13.5 7.7812 48.562 21.516 107.91-20.672l0.046875-0.046874c0.23438-0.23438 0.5625-0.375 0.84375-0.42188 1.9688-0.51562 4.2188-0.89062 6.1406-1.0312 0.98438-0.046874 1.8281-0.09375 2.6719 0 0.42188 0.046876 0.79688 0.09375 1.4062 0.32813 0.28125 0.14062 0.65625 0.28125 1.0781 0.70312 0.42188 0.42188 0.89062 1.2188 0.89062 2.0625v-0.046874c0.046875 1.0781-0.5625 2.1094-1.5469 2.5781 0 0-33.469 15.984-62.859 47.016s-54.562 76.594-38.438 136.78l-0.046875-0.046875c0.375 1.4531-0.46875 3-1.9688 3.375-0.70312 0.1875-1.4531 0.09375-2.1094-0.28125-0.60938-0.375-1.0781-0.98438-1.2656-1.6875-16.641-62.25 9.5625-110.16 39.797-141.98 9.1406-9.6094 18.516-17.672 27.328-24.422-42.797 19.828-70.594 9.4688-82.641 2.5312-4.7812-2.7656-8.5781-5.6719-11.531-8.7188 2.8125 11.25 4.6406 20.25 4.6406 25.688 0 3.9844-2.6719 7.6406-6.9844 11.719-4.2656 4.0312-10.406 8.1094-18.141 10.875-14.906 5.3438-35.906 5.8125-60.375-7.7344-0.28125 0.46875-0.5625 0.98438-0.89062 1.5-1.2188 1.875-2.9062 3.8906-5.0156 5.9062-4.2656 4.0312-10.406 7.9688-18.047 9.75-15.234 3.6094-35.906-1.9688-57.141-31.219h0.046875c-0.9375-1.2656-0.65625-3 0.60938-3.8906 1.2188-0.89062 2.9531-0.60938 3.8438 0.60938 20.484 28.172 38.438 32.156 51.375 29.109 6.4688-1.5469 11.812-4.9688 15.516-8.3906 1.8281-1.7344 3.2344-3.4688 4.1719-4.875 0.89062-1.4062 1.1719-2.6719 1.1719-2.4844 0-44.297-9.0469-74.812-18.047-94.266-6.6562-14.344-13.078-22.453-16.031-25.781-1.5469-1.2188-15.609-11.672-23.438-4.1719-5.8594 5.6719-49.359 32.578-41.203 63 0 0-11.906 19.922-8.7656 40.406 0 0 8.9531 140.16 64.031 197.95 28.828 107.53-6.0938 155.26-16.312 222.42 0 0 110.11 97.875 268.55 6.4219 17.062-17.062-40.828-140.44 9.4219-228.32 0 0 112.83-79.266 114.98-210.19 0 0-10.359-51.797-71.812-95.812-2.0625-1.0312-10.266-5.1562-21.328-10.547-6.1406-3-12.562-6.0469-17.766-8.4375-5.25-2.3906-9.6094-4.2188-10.641-4.5-5.1094-1.3594-9.4688-2.2031-13.5-2.2031z" fill="#007335"/>
</svg>
